<?xml version="1.0" encoding="UTF-8"?>
<svg version="1.1" xmlns="http://www.w3.org/2000/svg" width="797" height="123">
<path d="M0 0 C9.549375 -0.061875 19.09875 -0.12375 28.9375 -0.1875 C31.93577881 -0.21481201 34.93405762 -0.24212402 38.02319336 -0.27026367 C40.42040607 -0.27903194 42.81762327 -0.28667507 45.21484375 -0.29296875 C46.44271606 -0.30831665 47.67058838 -0.32366455 48.93566895 -0.33947754 C57.18354649 -0.34197614 64.34955896 0.04857959 70.9375 5.375 C74.80746358 10.30040819 75.3411884 14.73568269 75.3125 20.875 C75.32861328 21.55691406 75.34472656 22.23882812 75.36132812 22.94140625 C75.36614423 27.99831993 74.33024641 31.50195224 72 36 C66.31054306 41.68945694 59.77519782 42.31380551 52.125 42.625 C50.949375 42.68300781 50.949375 42.68300781 49.75 42.7421875 C47.83368633 42.83566622 45.91687681 42.91888495 44 43 C47.31280045 45.75923422 50.61951895 48.05768965 54.37890625 50.1640625 C55.38244141 50.72867188 56.38597656 51.29328125 57.41992188 51.875 C58.45697266 52.4525 59.49402344 53.03 60.5625 53.625 C61.60341797 54.21023437 62.64433594 54.79546875 63.71679688 55.3984375 C69.79768448 58.81374098 69.79768448 58.81374098 76 62 C76 62.66 76 63.32 76 64 C57.98550442 65.89449269 46.85567841 63.51884989 32.32128906 52.70214844 C29.53025831 50.65554911 26.64801175 48.79823849 23.71630859 46.96142578 C21.12661071 45.33530743 18.56581356 43.66354945 16 42 C15.67 49.26 15.34 56.52 15 64 C10.05 64 5.1 64 0 64 C0 42.88 0 21.76 0 0 Z M15 13 C15 18.94 15 24.88 15 31 C20.46285805 31.04597076 25.92504193 31.08577856 31.38793945 31.10986328 C33.24538449 31.11990615 35.10281379 31.13354304 36.96020508 31.15087891 C39.63366591 31.17520261 42.30691726 31.18650033 44.98046875 31.1953125 C45.80773972 31.20563507 46.63501068 31.21595764 47.48735046 31.22659302 C51.77143391 31.22742225 55.11539045 31.04123492 59 29 C60.80271782 27.19728218 60.21502284 24.55591251 60.25 22.125 C60.28867187 20.52011719 60.28867187 20.52011719 60.328125 18.8828125 C60.25298803 16.04049099 60.25298803 16.04049099 58.741745 14.34111023 C56.58520001 12.68061196 55.50237559 12.63511373 52.80395508 12.65942383 C51.96331009 12.65965042 51.1226651 12.65987701 50.25654602 12.66011047 C49.35333115 12.67559433 48.45011627 12.69107819 47.51953125 12.70703125 C46.59154221 12.71127609 45.66355316 12.71552094 44.70744324 12.71989441 C41.74216757 12.73669338 38.7775704 12.77434784 35.8125 12.8125 C33.80274419 12.82754526 31.79297773 12.84123394 29.78320312 12.85351562 C24.85520714 12.88660092 19.92771862 12.93839167 15 13 Z " fill="#0C1A29" transform="translate(624,54)"/>
<path d="M0 0 C11.55 0 23.1 0 35 0 C33.1754512 9.12274401 30.96480027 17.97724164 28.47900391 26.92260742 C27.99304538 28.68237619 27.51419523 30.44412341 27.04248047 32.20776367 C21.50640343 52.8997653 21.50640343 52.8997653 16 58 C12.13066523 59.88910444 9.02371441 60.24449578 4.7409668 60.22705078 C2.87960335 60.22682419 2.87960335 60.22682419 0.9806366 60.22659302 C-0.36317101 60.21638143 -1.70697695 60.20594946 -3.05078125 60.1953125 C-4.4336883 60.19157931 -5.81659802 60.18873378 -7.19950867 60.18673706 C-10.8278034 60.17912462 -14.45593637 60.15949691 -18.08416748 60.1373291 C-21.79111544 60.11681899 -25.4980897 60.10772433 -29.20507812 60.09765625 C-36.47012559 60.07624855 -43.73504007 60.04214175 -51 60 C-49.59135768 56.95455498 -48.17165089 53.91439157 -46.75 50.875 C-46.35425781 50.0190625 -45.95851563 49.163125 -45.55078125 48.28125 C-42.02997389 40.77789006 -39.26755759 35.45963761 -32 31 C-32 30.67 -32 30.34 -32 30 C-25.07 30 -18.14 30 -11 30 C-6.24750145 20.4950029 -3.30344173 10.06048164 0 0 Z " fill="#26657A" transform="translate(84,63)"/>
<path d="M0 0 C1.86125015 0.00033989 1.86125015 0.00033989 3.76010132 0.00068665 C5.09869759 0.01600283 6.43729011 0.03165075 7.77587891 0.04760742 C9.1573541 0.05320896 10.5388353 0.05747642 11.9203186 0.06047058 C15.54047357 0.07187559 19.16026228 0.10130448 22.78027344 0.13458252 C26.48058112 0.16537776 30.18094851 0.17899602 33.88134766 0.1940918 C41.13021179 0.2261791 48.3787751 0.27732186 55.62744141 0.34057617 C53.62757191 5.40457951 51.2191731 10.14799199 48.68994141 14.96557617 C48.24714844 15.8240918 47.80435547 16.68260742 47.34814453 17.56713867 C46.69942383 18.80463867 46.69942383 18.80463867 46.03759766 20.06713867 C45.4518396 21.18983154 45.4518396 21.18983154 44.85424805 22.33520508 C43.18783395 25.05917033 41.81657393 26.90548586 38.76513672 28.02197266 C36.28800389 28.39116616 33.92940784 28.45279691 31.42431641 28.43823242 C30.44462891 28.43500977 29.46494141 28.43178711 28.45556641 28.4284668 C27.43978516 28.42008789 26.42400391 28.41170898 25.37744141 28.40307617 C23.83056641 28.39630859 23.83056641 28.39630859 22.25244141 28.3894043 C19.71071568 28.37763705 17.16910821 28.36119628 14.62744141 28.34057617 C14.46880615 28.98043457 14.3101709 29.62029297 14.14672852 30.27954102 C12.46279022 36.96865555 10.27453686 43.45867414 8.00244141 49.96557617 C7.68911865 50.86695313 7.3757959 51.76833008 7.05297852 52.69702148 C6.75528564 53.54103516 6.45759277 54.38504883 6.15087891 55.25463867 C5.88194824 56.01728027 5.61301758 56.77992187 5.3359375 57.56567383 C4.62744141 59.34057617 4.62744141 59.34057617 3.62744141 60.34057617 C1.10650064 60.4290536 -1.38686752 60.45584919 -3.90771484 60.43823242 C-5.03759071 60.43611 -5.03759071 60.43611 -6.19029236 60.4339447 C-8.60525419 60.42832993 -11.0201246 60.415775 -13.43505859 60.40307617 C-15.0685208 60.39806307 -16.70198445 60.39349984 -18.33544922 60.3894043 C-22.34785444 60.37835571 -26.360191 60.36108123 -30.37255859 60.34057617 C-29.1288841 53.65553558 -27.58612317 47.13570477 -25.69287109 40.60620117 C-25.43883514 39.72454285 -25.18479919 38.84288452 -24.92306519 37.93450928 C-24.38914134 36.08857235 -23.85291224 34.24330074 -23.31445312 32.39868164 C-22.49642317 29.58667312 -21.69410634 26.77046882 -20.89208984 23.95385742 C-20.36830799 22.15019361 -19.84360033 20.34679833 -19.31787109 18.54370117 C-19.08230499 17.70921448 -18.84673889 16.87472778 -18.60403442 16.01495361 C-16.86670271 10.15081279 -15.13244366 4.99529242 -9.63391113 1.69859314 C-6.12786531 0.23868666 -3.77724034 -0.02312596 0 0 Z " fill="#0C1737" transform="translate(37.37255859375,-0.340576171875)"/>
<path d="M0 0 C4.68624375 1.18992396 7.55061275 4.53259875 10.83837891 7.92773438 C13.59859386 10.77351844 16.41631843 13.56186939 19.22290039 16.36181641 C20.78623773 17.92626962 22.34427706 19.49604012 23.89624023 21.07177734 C27.30977939 24.52756975 30.73350631 27.89971922 34.421875 31.0625 C39.32043691 35.35931918 43.88466301 40.02528801 48.4921875 44.6328125 C48.8221875 30.4428125 49.1521875 16.2528125 49.4921875 1.6328125 C54.1121875 1.6328125 58.7321875 1.6328125 63.4921875 1.6328125 C65.22561722 3.36624222 64.64663509 5.72124851 64.66918945 8.08300781 C64.68844231 9.83052338 64.68844231 9.83052338 64.70808411 11.61334229 C64.71547104 12.88304871 64.72285797 14.15275513 64.73046875 15.4609375 C64.7385405 16.75723083 64.74661224 18.05352417 64.75492859 19.38909912 C64.76997177 22.1397692 64.779801 24.8904133 64.78735352 27.64111328 C64.79840011 31.15970662 64.8327722 34.67766437 64.87252522 38.19603348 C64.90501134 41.55514266 64.90947291 44.91418334 64.91796875 48.2734375 C64.93547684 49.535047 64.95298492 50.79665649 64.97102356 52.09649658 C64.96809799 53.2741156 64.96517242 54.45173462 64.9621582 55.66503906 C64.96802444 56.69904846 64.97389069 57.73305786 64.97993469 58.79840088 C64.35876486 62.40816226 63.06953681 64.06907264 60.4921875 66.6328125 C56.98356849 67.49457857 55.81482481 67.66764062 52.4921875 66.6328125 C45.22498212 62.09363904 39.20020756 55.53663533 33.2590332 49.4152832 C29.84860049 45.90898143 26.28820396 42.66343548 22.58666992 39.46679688 C18.97069413 36.30055254 15.48770409 32.9932275 11.9921875 29.6953125 C9.5171875 27.3646875 7.0421875 25.0340625 4.4921875 22.6328125 C4.1621875 36.8228125 3.8321875 51.0128125 3.4921875 65.6328125 C-0.7978125 65.6328125 -5.0878125 65.6328125 -9.5078125 65.6328125 C-9.57556514 57.60082419 -9.63061481 49.56905769 -9.66324902 41.53686047 C-9.67891109 37.80726195 -9.70015879 34.07786892 -9.73413086 30.34838867 C-9.76670569 26.74981476 -9.78466144 23.15143861 -9.79244423 19.55272865 C-9.79799118 18.17917072 -9.80882302 16.80562372 -9.82500267 15.43214989 C-9.84674926 13.50980543 -9.84803767 11.58726235 -9.84838867 9.66479492 C-9.85505051 8.57003342 -9.86171234 7.47527191 -9.86857605 6.34733582 C-9.5078125 3.6328125 -9.5078125 3.6328125 -8.10591125 1.79389954 C-5.43256946 -0.14839752 -3.23722206 -0.15513844 0 0 Z " fill="#0C1A29" transform="translate(399.5078125,52.3671875)"/>
<path d="M0 0 C0.81339844 -0.02191406 1.62679687 -0.04382812 2.46484375 -0.06640625 C8.05514596 1.28703534 11.05111674 5.2879654 14.03515625 9.90625 C15.07570324 11.61860401 16.10509976 13.33776878 17.125 15.0625 C18.26794882 16.95199252 19.4111863 18.84131047 20.5546875 20.73046875 C21.42432129 22.17945557 21.42432129 22.17945557 22.31152344 23.65771484 C25.08315335 28.25571438 27.91798672 32.81404345 30.75 37.375 C31.55099121 38.67111206 31.55099121 38.67111206 32.36816406 39.9934082 C34.9256685 44.13112423 37.49683319 48.25901182 40.1015625 52.3671875 C40.57118408 53.1099292 41.04080566 53.8526709 41.5246582 54.61791992 C42.40212138 56.00336304 43.28326965 57.38648152 44.16870117 58.7668457 C47.0625 63.34044465 47.0625 63.34044465 47.0625 65.5625 C44.40313657 65.94720699 41.79906353 66.21820441 39.125 66.4375 C38.38958984 66.55480469 37.65417969 66.67210938 36.89648438 66.79296875 C34.08482413 66.96486064 32.59574187 66.85701765 30.0625 65.5625 C29.11680061 63.91699075 28.18073694 62.26302431 27.34701538 60.55804443 C24.36840836 54.39808527 24.36840836 54.39808527 18.84811401 50.76226807 C12.27956526 49.60327591 5.63601187 49.94867457 -1 50.1875 C-3.03053956 50.20953058 -5.06115845 50.22521693 -7.09179688 50.234375 C-12.0443012 50.27045215 -16.98784284 50.39288459 -21.9375 50.5625 C-22.96658511 53.10790725 -23.96330086 55.6383523 -24.84765625 58.23828125 C-26.2344596 61.41147534 -27.28710376 63.29258478 -29.9375 65.5625 C-35.483418 66.85111446 -41.33201876 66.12429656 -46.9375 65.5625 C-45.67058528 62.19367539 -44.22635203 59.19904002 -42.3203125 56.1484375 C-41.80186768 55.31465576 -41.28342285 54.48087402 -40.74926758 53.62182617 C-40.19263428 52.73599854 -39.63600098 51.8501709 -39.0625 50.9375 C-38.48459717 50.01106689 -37.90669434 49.08463379 -37.3112793 48.13012695 C-32.98746241 41.20813151 -28.64114235 34.29973756 -24.26391602 27.41137695 C-21.85308914 23.61559845 -19.46889922 19.80800837 -17.140625 15.9609375 C-16.69485107 15.22979736 -16.24907715 14.49865723 -15.78979492 13.74536133 C-14.95930821 12.38008079 -14.13595821 11.01042024 -13.3215332 9.63549805 C-9.97887952 4.16261573 -6.76434327 -0.01068617 0 0 Z M-0.9375 16.5625 C-0.2775 17.2225 0.3825 17.8825 1.0625 18.5625 C1.0625 17.9025 1.0625 17.2425 1.0625 16.5625 C0.4025 16.5625 -0.2575 16.5625 -0.9375 16.5625 Z M-1.9375 18.5625 C-2.88442843 19.90935682 -3.78251508 21.290596 -4.66015625 22.68359375 C-5.19833984 23.53630859 -5.73652344 24.38902344 -6.29101562 25.26757812 C-6.85498047 26.16927734 -7.41894531 27.07097656 -8 28 C-8.85174805 29.34674805 -8.85174805 29.34674805 -9.72070312 30.72070312 C-12.50618136 34.403566 -12.50618136 34.403566 -13.9375 38.5625 C-5.0275 38.5625 3.8825 38.5625 13.0625 38.5625 C11.22130053 33.95950133 9.13534449 29.9879806 6.625 25.75 C6.22990234 25.05712891 5.83480469 24.36425781 5.42773438 23.65039062 C4.39173055 21.90073358 3.2348656 20.22387371 2.0625 18.5625 C1.0725 18.5625 0.0825 18.5625 -0.9375 18.5625 C-1.2675 18.5625 -1.5975 18.5625 -1.9375 18.5625 Z " fill="#0C1A29" transform="translate(167.9375,52.4375)"/>
<path d="M0 0 C0.82242188 -0.0309375 1.64484375 -0.061875 2.4921875 -0.09375 C8.36174694 1.22994886 11.307929 5.52869719 14.4296875 10.32421875 C15.63047705 12.27209903 16.81996285 14.22697826 18 16.1875 C18.9597876 17.75274414 18.9597876 17.75274414 19.93896484 19.34960938 C21.65337635 22.14752896 23.35887034 24.95067291 25.06225586 27.75531006 C26.85860205 30.70434267 28.6714128 33.64319424 30.484375 36.58203125 C33.81522198 41.98233023 37.13955296 47.38654798 40.45410156 52.796875 C41.9740826 55.25585075 43.52640471 57.69103443 45.0859375 60.125 C47.125 63.5 47.125 63.5 47.125 65.5 C44.46563657 65.88470699 41.86156353 66.15570441 39.1875 66.375 C38.45208984 66.49230469 37.71667969 66.60960938 36.95898438 66.73046875 C34.14732413 66.90236064 32.65824187 66.79451765 30.125 65.5 C29.17930061 63.85449075 28.24323694 62.20052431 27.40951538 60.49554443 C24.43090836 54.33558527 24.43090836 54.33558527 18.91061401 50.69976807 C12.34206526 49.54077591 5.69851187 49.88617457 -0.9375 50.125 C-2.96803956 50.14703058 -4.99865845 50.16271693 -7.02929688 50.171875 C-11.9818012 50.20795215 -16.92534284 50.33038459 -21.875 50.5 C-22.90408511 53.04540725 -23.90080086 55.5758523 -24.78515625 58.17578125 C-26.1719596 61.34897534 -27.22460376 63.23008478 -29.875 65.5 C-35.420918 66.78861446 -41.26951876 66.06179656 -46.875 65.5 C-45.5268016 61.86222387 -43.8889723 58.70839942 -41.8203125 55.4296875 C-41.2113916 54.46015137 -40.6024707 53.49061523 -39.97509766 52.49169922 C-38.99742432 50.94893311 -38.99742432 50.94893311 -38 49.375 C-36.99332275 47.77615967 -36.99332275 47.77615967 -35.96630859 46.14501953 C-33.93946803 42.9277284 -31.90733084 39.71382476 -29.875 36.5 C-28.75994056 34.72946643 -27.64532061 32.95865594 -26.53125 31.1875 C-24.10287867 27.3286866 -21.66326539 23.47715092 -19.21972656 19.62792969 C-17.89472804 17.53121816 -16.58286139 15.42677702 -15.2734375 13.3203125 C-14.47411436 12.04677706 -13.67464427 10.77333383 -12.875 9.5 C-12.194375 8.406875 -11.51375 7.31375 -10.8125 6.1875 C-7.70472707 1.87671819 -5.37438199 0.06697049 0 0 Z M-0.875 16.5 C-2.39667051 18.48827645 -2.39667051 18.48827645 -3.9140625 21.05859375 C-4.49414062 22.00154297 -5.07421875 22.94449219 -5.671875 23.91601562 C-6.27515625 24.91310547 -6.8784375 25.91019531 -7.5 26.9375 C-8.41652344 28.42733398 -8.41652344 28.42733398 -9.3515625 29.94726562 C-12.32278296 33.97859955 -12.32278296 33.97859955 -13.875 38.5 C-4.635 38.5 4.605 38.5 14.125 38.5 C7.91933018 27.32041327 7.91933018 27.32041327 1.125 16.5 C0.465 16.5 -0.195 16.5 -0.875 16.5 Z " fill="#0C1A29" transform="translate(571.875,52.5)"/>
<path d="M0 0 C0.7321875 -0.00773437 1.464375 -0.01546875 2.21875 -0.0234375 C6.1453254 0.66236848 8.51127437 2.04638932 10.92041016 5.28369141 C12.53060688 7.78052546 14.05494034 10.3148896 15.5625 12.875 C16.71914476 14.79221435 17.8767159 16.70887008 19.03515625 18.625 C19.61539551 19.59179688 20.19563477 20.55859375 20.79345703 21.5546875 C23.30187767 25.70022043 25.89771537 29.78799228 28.5 33.875 C32.94865335 40.89682802 37.36298279 47.93949418 41.75 55 C42.32363281 55.91974609 42.89726562 56.83949219 43.48828125 57.78710938 C44.01292969 58.63337891 44.53757812 59.47964844 45.078125 60.3515625 C45.54637695 61.10518066 46.01462891 61.85879883 46.49707031 62.63525391 C47.5 64.375 47.5 64.375 47.5 65.375 C32.04412137 67.30698483 32.04412137 67.30698483 27.86230469 64.13134766 C24.71199064 60.41232265 21.5 55.32832299 21.5 50.375 C15.53941893 50.17074214 9.58682712 50.06010055 3.62280273 50.03320312 C1.59828308 50.01123785 -0.42613399 49.96441975 -2.44946289 49.89160156 C-13.41642185 49.00866638 -13.41642185 49.00866638 -23.19021606 52.80169678 C-25.49461707 55.73154671 -27.07005848 58.90946353 -28.70092773 62.24462891 C-30.5 65.375 -30.5 65.375 -32.75024414 66.52490234 C-35.15983306 66.74794282 -37.17597276 66.63067306 -39.5625 66.25 C-40.33271484 66.18683594 -41.10292969 66.12367187 -41.89648438 66.05859375 C-43.77109658 65.89558399 -45.63769896 65.64440291 -47.5 65.375 C-46.20212451 61.88806685 -44.67949987 58.86640789 -42.6640625 55.7421875 C-42.10041992 54.86320801 -41.53677734 53.98422852 -40.95605469 53.07861328 C-40.35180664 52.1451709 -39.74755859 51.21172852 -39.125 50.25 C-37.85126118 48.2658184 -36.57782898 46.28143994 -35.3046875 44.296875 C-34.66499023 43.30236328 -34.02529297 42.30785156 -33.36621094 41.28320312 C-30.64017874 37.03510063 -27.94355118 32.76874027 -25.25 28.5 C-24.76345947 27.73284668 -24.27691895 26.96569336 -23.77563477 26.17529297 C-21.37785366 22.38804914 -19.01412342 18.58544362 -16.70703125 14.7421875 C-16.26069336 14.00597168 -15.81435547 13.26975586 -15.35449219 12.51123047 C-14.52113043 11.13331751 -13.69683729 9.74985915 -12.88378906 8.35986328 C-9.64736653 3.03249361 -6.41858617 -0.06780197 0 0 Z M-0.5 16.375 C-9.09110787 26.55937684 -9.09110787 26.55937684 -13.5 38.375 C-4.59 38.375 4.32 38.375 13.5 38.375 C8.77984182 29.64052049 8.77984182 29.64052049 3.6875 21.1875 C2.81158203 19.80498047 2.81158203 19.80498047 1.91796875 18.39453125 C1.45003906 17.72808594 0.98210937 17.06164062 0.5 16.375 C0.17 16.375 -0.16 16.375 -0.5 16.375 Z " fill="#0C1A29" transform="translate(337.5,52.625)"/>
<path d="M0 0 C0.82242188 -0.0309375 1.64484375 -0.061875 2.4921875 -0.09375 C8.36174694 1.22994886 11.307929 5.52869719 14.4296875 10.32421875 C15.63047705 12.27209903 16.81996285 14.22697826 18 16.1875 C18.9597876 17.75274414 18.9597876 17.75274414 19.93896484 19.34960938 C21.65337635 22.14752896 23.35887034 24.95067291 25.06225586 27.75531006 C26.85860205 30.70434267 28.6714128 33.64319424 30.484375 36.58203125 C33.81522198 41.98233023 37.13955296 47.38654798 40.45410156 52.796875 C41.9740826 55.25585075 43.52640471 57.69103443 45.0859375 60.125 C47.125 63.5 47.125 63.5 47.125 65.5 C44.46563657 65.88470699 41.86156353 66.15570441 39.1875 66.375 C38.45208984 66.49230469 37.71667969 66.60960938 36.95898438 66.73046875 C34.14732413 66.90236064 32.65824187 66.79451765 30.125 65.5 C29.17930061 63.85449075 28.24323694 62.20052431 27.40951538 60.49554443 C24.43090836 54.33558527 24.43090836 54.33558527 18.91061401 50.69976807 C12.34206526 49.54077591 5.69851187 49.88617457 -0.9375 50.125 C-2.96803956 50.14703058 -4.99865845 50.16271693 -7.02929688 50.171875 C-11.9818012 50.20795215 -16.92534284 50.33038459 -21.875 50.5 C-22.90408511 53.04540725 -23.90080086 55.5758523 -24.78515625 58.17578125 C-26.1719596 61.34897534 -27.22460376 63.23008478 -29.875 65.5 C-35.420918 66.78861446 -41.26951876 66.06179656 -46.875 65.5 C-45.5268016 61.86222387 -43.8889723 58.70839942 -41.8203125 55.4296875 C-41.2113916 54.46015137 -40.6024707 53.49061523 -39.97509766 52.49169922 C-38.99742432 50.94893311 -38.99742432 50.94893311 -38 49.375 C-36.99332275 47.77615967 -36.99332275 47.77615967 -35.96630859 46.14501953 C-33.93946803 42.9277284 -31.90733084 39.71382476 -29.875 36.5 C-28.75994056 34.72946643 -27.64532061 32.95865594 -26.53125 31.1875 C-24.10287867 27.3286866 -21.66326539 23.47715092 -19.21972656 19.62792969 C-17.89472804 17.53121816 -16.58286139 15.42677702 -15.2734375 13.3203125 C-14.47411436 12.04677706 -13.67464427 10.77333383 -12.875 9.5 C-12.194375 8.406875 -11.51375 7.31375 -10.8125 6.1875 C-7.70472707 1.87671819 -5.37438199 0.06697049 0 0 Z M-0.875 16.5 C-2.39667051 18.48827645 -2.39667051 18.48827645 -3.9140625 21.05859375 C-4.49414062 22.00154297 -5.07421875 22.94449219 -5.671875 23.91601562 C-6.27515625 24.91310547 -6.8784375 25.91019531 -7.5 26.9375 C-8.41652344 28.42733398 -8.41652344 28.42733398 -9.3515625 29.94726562 C-12.32278296 33.97859955 -12.32278296 33.97859955 -13.875 38.5 C-4.635 38.5 4.605 38.5 14.125 38.5 C7.91933018 27.32041327 7.91933018 27.32041327 1.125 16.5 C0.465 16.5 -0.195 16.5 -0.875 16.5 Z " fill="#0C1A29" transform="translate(749.875,52.5)"/>
<path d="M0 0 C1.16015625 0.00322266 2.3203125 0.00644531 3.515625 0.00976562 C5.32546875 0.02233398 5.32546875 0.02233398 7.171875 0.03515625 C9.00492188 0.04192383 9.00492188 0.04192383 10.875 0.04882812 C13.89064592 0.06060799 16.90626665 0.07854324 19.921875 0.09765625 C19.921875 4.38765625 19.921875 8.67765625 19.921875 13.09765625 C18.45234375 13.14664063 16.9828125 13.195625 15.46875 13.24609375 C13.53643965 13.32113493 11.6041489 13.39668218 9.671875 13.47265625 C8.21974609 13.5190625 8.21974609 13.5190625 6.73828125 13.56640625 C5.80371094 13.60507813 4.86914062 13.64375 3.90625 13.68359375 C2.61799316 13.7307251 2.61799316 13.7307251 1.30371094 13.77880859 C-1.26686505 14.12292219 -2.91867473 14.66504828 -5.078125 16.09765625 C-6.79104829 21.23642611 -6.26272846 26.6562751 -6.265625 32.03515625 C-6.27787109 33.22818359 -6.29011719 34.42121094 -6.30273438 35.65039062 C-6.30466797 36.79701172 -6.30660156 37.94363281 -6.30859375 39.125 C-6.31475708 40.69882446 -6.31475708 40.69882446 -6.32104492 42.30444336 C-6.07474504 45.13652071 -5.69363213 46.77139323 -4.078125 49.09765625 C1.24941629 50.87350335 7.0203733 50.28356848 12.6003418 50.28295898 C14.84768628 50.28514488 17.09453924 50.30331077 19.34179688 50.32226562 C20.77343583 50.32519995 22.2050771 50.32718448 23.63671875 50.328125 C24.93730225 50.33223389 26.23788574 50.33634277 27.57788086 50.34057617 C30.68295891 50.11501199 32.38974977 49.84741133 34.921875 48.09765625 C36.12458464 45.69223696 36.12504163 43.99399034 36.23828125 41.30859375 C36.30112305 39.89707031 36.30112305 39.89707031 36.36523438 38.45703125 C36.40455078 37.4721875 36.44386719 36.48734375 36.484375 35.47265625 C36.54915039 33.98378906 36.54915039 33.98378906 36.61523438 32.46484375 C36.72148447 30.00928592 36.82219955 27.55348974 36.921875 25.09765625 C41.871875 25.09765625 46.821875 25.09765625 51.921875 25.09765625 C51.97633077 28.41038248 52.01576737 31.72219407 52.046875 35.03515625 C52.06363281 35.96134766 52.08039063 36.88753906 52.09765625 37.84179688 C52.14724806 44.90863037 51.92102988 51.81333037 48.171875 57.97265625 C41.50691191 64.26734362 33.40196456 64.25220163 24.6796875 64.265625 C23.91187958 64.2689534 23.14407166 64.2722818 22.35299683 64.27571106 C20.73777866 64.28074535 19.12255022 64.28312047 17.50732422 64.28295898 C15.06069495 64.28514391 12.61451842 64.30333253 10.16796875 64.32226562 C-10.72681413 64.39877985 -10.72681413 64.39877985 -18.078125 58.09765625 C-23.05033417 50.21070377 -22.26096719 41.27939168 -22.265625 32.28515625 C-22.27787109 31.05216797 -22.29011719 29.81917969 -22.30273438 28.54882812 C-22.32796929 12.79382901 -22.32796929 12.79382901 -18.328125 6.22265625 C-12.90730866 1.10299637 -7.19223621 -0.03525606 0 0 Z " fill="#0C1A29" transform="translate(238.078125,53.90234375)"/>
<path d="M0 0 C22.11 0 44.22 0 67 0 C67 4.29 67 8.58 67 13 C58.42 13 49.84 13 41 13 C41 29.83 41 46.66 41 64 C36.05 64 31.1 64 26 64 C26 47.17 26 30.34 26 13 C17.42 13 8.84 13 0 13 C0 8.71 0 4.42 0 0 Z " fill="#0C1A29" transform="translate(470,54)"/>
<path d="M0 0 C4.60813849 -0.04957858 9.21612037 -0.08580385 13.82446289 -0.10986328 C15.39089667 -0.11989726 16.95731183 -0.13352754 18.52368164 -0.15087891 C20.78015753 -0.17524225 23.03638494 -0.18650916 25.29296875 -0.1953125 C25.98899704 -0.20563507 26.68502533 -0.21595764 27.40214539 -0.22659302 C31.38310724 -0.22750376 34.45104961 0.15740792 38 2 C40 4 40 4 40.3125 7.46875 C40.17895498 12.7437784 38.60800986 17.51384598 37 22.5 C36.01 25.635 35.02 28.77 34 32 C22.45 32 10.9 32 -1 32 C-1.33 31.34 -1.66 30.68 -2 30 C-4.11327425 29.09274566 -4.11327425 29.09274566 -6.5625 28.375 C-7.38878906 28.11460938 -8.21507813 27.85421875 -9.06640625 27.5859375 C-9.70449219 27.39257812 -10.34257813 27.19921875 -11 27 C-10.57278337 20.3735973 -7.98701302 15.38887356 -4.9375 9.5625 C-4.46505859 8.64017578 -3.99261719 7.71785156 -3.50585938 6.76757812 C-2.34622899 4.50688455 -1.17749658 2.25142445 0 0 Z " fill="#26657A" transform="translate(87,27)"/>
<path d="M0 0 C11.55 0 23.1 0 35 0 C35 0.66 35 1.32 35 2 C35.63808594 2.13277344 36.27617188 2.26554687 36.93359375 2.40234375 C37.75988281 2.57894531 38.58617187 2.75554687 39.4375 2.9375 C40.26121094 3.11152344 41.08492187 3.28554687 41.93359375 3.46484375 C44 4 44 4 45 5 C44.72521739 11.60364665 41.9614836 16.65990273 38.9375 22.4375 C38.46505859 23.35982422 37.99261719 24.28214844 37.50585938 25.23242188 C36.34622899 27.49311545 35.17749658 29.74857555 34 32 C29.71331312 32.04975174 25.42678303 32.0858847 21.13989258 32.10986328 C19.68413359 32.1198685 18.22839443 32.13347696 16.77270508 32.15087891 C14.6700346 32.17537044 12.56763176 32.18653794 10.46484375 32.1953125 C9.202771 32.20578613 7.94069824 32.21625977 6.64038086 32.22705078 C-2.33259424 31.66740576 -2.33259424 31.66740576 -5 29 C-6.47299901 18.92047819 -2.85989032 9.5091353 0 0 Z " fill="#0C1737" transform="translate(5,64)"/>
<path d="M0 0 C13.2 0 26.4 0 40 0 C40 0.33 40 0.66 40 1 C27.13 1 14.26 1 1 1 C1 5.62 1 10.24 1 15 C13.21 15 25.42 15 38 15 C38 15.33 38 15.66 38 16 C25.46 16 12.92 16 0 16 C0 10.72 0 5.44 0 0 Z " fill="#0C1A29" transform="translate(640,68)"/>
<path d="M0 0 C8.25 0 16.5 0 25 0 C25 0.33 25 0.66 25 1 C17.08 1 9.16 1 1 1 C1 16.84 1 32.68 1 49 C0.67 49 0.34 49 0 49 C0 32.83 0 16.66 0 0 Z " fill="#0C1A29" transform="translate(512,68)"/>
<path d="M0 0 C8.25 0 16.5 0 25 0 C25 16.17 25 32.34 25 49 C24.67 49 24.34 49 24 49 C24 33.16 24 17.32 24 1 C16.08 1 8.16 1 0 1 C0 0.67 0 0.34 0 0 Z " fill="#0C1B29" transform="translate(470,68)"/>
<path d="M0 0 C1.38594529 0.00031696 2.77191535 0.01163319 4.15771484 0.03173828 C4.88735443 0.03456818 5.61699402 0.03739807 6.3687439 0.04031372 C8.70221262 0.05152076 11.03529937 0.07662568 13.36865234 0.10205078 C14.94937597 0.11207993 16.53010561 0.1212059 18.11083984 0.12939453 C21.98859149 0.15146173 25.86605712 0.18599463 29.74365234 0.22705078 C29.41365234 0.88705078 29.08365234 1.54705078 28.74365234 2.22705078 C17.52365234 2.22705078 6.30365234 2.22705078 -5.25634766 2.22705078 C-3.25634766 0.22705078 -3.25634766 0.22705078 0 0 Z " fill="#26657A" transform="translate(90.25634765625,59.77294921875)"/>
<path d="M0 0 C22.11 0 44.22 0 67 0 C67 0.33 67 0.66 67 1 C44.89 1 22.78 1 0 1 C0 0.67 0 0.34 0 0 Z " fill="#0D1A29" transform="translate(470,52)"/>
<path d="M0 0 C0.33 0 0.66 0 1 0 C1 20.46 1 40.92 1 62 C0.67 62 0.34 62 0 62 C0 41.54 0 21.08 0 0 Z " fill="#0C1A29" transform="translate(622,55)"/>
<path d="M0 0 C0.33 0 0.66 0 1 0 C1 19.14 1 38.28 1 58 C0.67 58 0.34 58 0 58 C0 38.86 0 19.72 0 0 Z " fill="#0C1A29" transform="translate(388,59)"/>
<path d="M0 0 C18.81 0 37.62 0 57 0 C57 0.33 57 0.66 57 1 C38.19 1 19.38 1 0 1 C0 0.67 0 0.34 0 0 Z " fill="#0C1A29" transform="translate(625,52)"/>
<path d="M0 0 C13.86 0 27.72 0 42 0 C42 0.33 42 0.66 42 1 C28.14 1 14.28 1 0 1 C0 0.67 0 0.34 0 0 Z " fill="#0C1A29" transform="translate(729,104)"/>
<path d="M0 0 C13.86 0 27.72 0 42 0 C42 0.33 42 0.66 42 1 C28.14 1 14.28 1 0 1 C0 0.67 0 0.34 0 0 Z " fill="#0C1A29" transform="translate(551,104)"/>
<path d="M0 0 C13.86 0 27.72 0 42 0 C42 0.33 42 0.66 42 1 C28.14 1 14.28 1 0 1 C0 0.67 0 0.34 0 0 Z " fill="#0C1A29" transform="translate(316,104)"/>
<path d="M0 0 C13.86 0 27.72 0 42 0 C42 0.33 42 0.66 42 1 C28.14 1 14.28 1 0 1 C0 0.67 0 0.34 0 0 Z " fill="#0C1B29" transform="translate(147,104)"/>
<path d="M0 0 C0.33 0 0.66 0 1 0 C1 13.53 1 27.06 1 41 C-1 39 -1 39 -1.13525391 35.19287109 C-1.09287412 33.55275438 -1.03919625 31.91290567 -0.9765625 30.2734375 C-0.95153656 29.41062164 -0.92651062 28.54780579 -0.90072632 27.65884399 C-0.81841184 24.89716971 -0.72186733 22.13619848 -0.625 19.375 C-0.56677209 17.50523725 -0.50946857 15.63544548 -0.453125 13.765625 C-0.3128161 9.1766774 -0.15974165 4.5883106 0 0 Z " fill="#0D1B29" transform="translate(447,55)"/>
<path d="M0 0 C11.88 0 23.76 0 36 0 C36 0.33 36 0.66 36 1 C24.12 1 12.24 1 0 1 C0 0.67 0 0.34 0 0 Z " fill="#0C1A29" transform="translate(235,119)"/>
<path d="M0 0 C11.22 0 22.44 0 34 0 C34 0.33 34 0.66 34 1 C22.78 1 11.56 1 0 1 C0 0.67 0 0.34 0 0 Z " fill="#0C1737" transform="translate(6,62)"/>
<path d="M0 0 C10.56 0 21.12 0 32 0 C32 0.33 32 0.66 32 1 C21.44 1 10.88 1 0 1 C0 0.67 0 0.34 0 0 Z " fill="#0D1A2A" transform="translate(237,103)"/>
<path d="M0 0 C10.23 0 20.46 0 31 0 C31 0.33 31 0.66 31 1 C20.77 1 10.54 1 0 1 C0 0.67 0 0.34 0 0 Z " fill="#0D1838" transform="translate(8,97)"/>
<path d="M0 0 C10.23 0 20.46 0 31 0 C31 0.33 31 0.66 31 1 C20.77 1 10.54 1 0 1 C0 0.67 0 0.34 0 0 Z " fill="#27657A" transform="translate(88,25)"/>
<path d="M0 0 C0.33 0.66 0.66 1.32 1 2 C7.6 2 14.2 2 21 2 C21.33 1.34 21.66 0.68 22 0 C22.33 0.99 22.66 1.98 23 3 C15.08 3 7.16 3 -1 3 C-0.67 2.01 -0.34 1.02 0 0 Z " fill="#0C1A29" transform="translate(739,87)"/>
<path d="M0 0 C0.33 0.66 0.66 1.32 1 2 C7.6 2 14.2 2 21 2 C21.33 1.34 21.66 0.68 22 0 C22.33 0.99 22.66 1.98 23 3 C15.08 3 7.16 3 -1 3 C-0.67 2.01 -0.34 1.02 0 0 Z " fill="#0C1A29" transform="translate(561,87)"/>
<path d="M0 0 C0.33 0 0.66 0 1 0 C1 8.91 1 17.82 1 27 C0.67 27 0.34 27 0 27 C0 18.09 0 9.18 0 0 Z " fill="#0C1A2A" transform="translate(214,72)"/>
<path d="M0 0 C0.66 0.99 1.32 1.98 2 3 C-5.92 3 -13.84 3 -22 3 C-22 2.67 -22 2.34 -22 2 C-14.74 2 -7.48 2 0 2 C0 1.34 0 0.68 0 0 Z " fill="#0C1A29" transform="translate(178,87)"/>
<path d="M0 0 C0.33 0 0.66 0 1 0 C1 8.58 1 17.16 1 26 C0.67 26 0.34 26 0 26 C0 17.42 0 8.84 0 0 Z " fill="#0C1A29" transform="translate(232,73)"/>
<path d="M0 0 C7.59 0.33 15.18 0.66 23 1 C23 1.33 23 1.66 23 2 C15.08 2 7.16 2 -1 2 C-0.67 1.34 -0.34 0.68 0 0 Z " fill="#0C1A29" transform="translate(326,88)"/>
<path d="M0 0 C7.92 0 15.84 0 24 0 C24 0.33 24 0.66 24 1 C16.08 1 8.16 1 0 1 C0 0.67 0 0.34 0 0 Z " fill="#0C1A29" transform="translate(675,119)"/>
<path d="M0 0 C1.485 0.99 1.485 0.99 3 2 C2.34 2 1.68 2 1 2 C1 7.94 1 13.88 1 20 C0.67 20 0.34 20 0 20 C0 13.4 0 6.8 0 0 Z " fill="#0C1A29" transform="translate(640,97)"/>
<path d="M0 0 C7.26 0 14.52 0 22 0 C22 0.33 22 0.66 22 1 C14.74 1 7.48 1 0 1 C0 0.67 0 0.34 0 0 Z " fill="#0C1A29" transform="translate(235,52)"/>
<path d="M0 0 C6.93 0 13.86 0 21 0 C21 0.33 21 0.66 21 1 C14.07 1 7.14 1 0 1 C0 0.67 0 0.34 0 0 Z " fill="#0C1737" transform="translate(53,29)"/>
<path d="M0 0 C0.33 0 0.66 0 1 0 C1 6.6 1 13.2 1 20 C0.67 20 0.34 20 0 20 C0 13.4 0 6.8 0 0 Z " fill="#0C1B29" transform="translate(291,80)"/>
<path d="M0 0 C6.6 0 13.2 0 20 0 C20 0.33 20 0.66 20 1 C13.4 1 6.8 1 0 1 C0 0.67 0 0.34 0 0 Z " fill="#0D1A29" transform="translate(237,68)"/>
<path d="M0 0 C0.33 0 0.66 0 1 0 C1 5.94 1 11.88 1 18 C0.67 18 0.34 18 0 18 C0 12.06 0 6.12 0 0 Z " fill="#0C1A29" transform="translate(273,80)"/>
<path d="M0 0 C5.61 0 11.22 0 17 0 C17 0.33 17 0.66 17 1 C11.39 1 5.78 1 0 1 C0 0.67 0 0.34 0 0 Z " fill="#0C1A29" transform="translate(780,119)"/>
<path d="M0 0 C5.61 0 11.22 0 17 0 C17 0.33 17 0.66 17 1 C11.39 1 5.78 1 0 1 C0 0.67 0 0.34 0 0 Z " fill="#0C1A29" transform="translate(703,119)"/>
<path d="M0 0 C5.61 0 11.22 0 17 0 C17 0.33 17 0.66 17 1 C11.39 1 5.78 1 0 1 C0 0.67 0 0.34 0 0 Z " fill="#0C1A2A" transform="translate(602,119)"/>
<path d="M0 0 C5.61 0 11.22 0 17 0 C17 0.33 17 0.66 17 1 C11.39 1 5.78 1 0 1 C0 0.67 0 0.34 0 0 Z " fill="#0C1A2A" transform="translate(525,119)"/>
<path d="M0 0 C5.61 0 11.22 0 17 0 C17 0.33 17 0.66 17 1 C11.39 1 5.78 1 0 1 C0 0.67 0 0.34 0 0 Z " fill="#0C1A29" transform="translate(198,119)"/>
<path d="M0 0 C5.61 0 11.22 0 17 0 C17 0.33 17 0.66 17 1 C11.39 1 5.78 1 0 1 C0 0.67 0 0.34 0 0 Z " fill="#0C1A29" transform="translate(121,119)"/>
<path d="M0 0 C5.28 0 10.56 0 16 0 C16 0.33 16 0.66 16 1 C10.72 1 5.44 1 0 1 C0 0.67 0 0.34 0 0 Z " fill="#0C1A29" transform="translate(368,119)"/>
<path d="M0 0 C5.28 0 10.56 0 16 0 C16 0.33 16 0.66 16 1 C10.72 1 5.44 1 0 1 C0 0.67 0 0.34 0 0 Z " fill="#0C1A2A" transform="translate(291,119)"/>
<path d="M0 0 C0.33 0 0.66 0 1 0 C1 4.95 1 9.9 1 15 C0.67 15 0.34 15 0 15 C0 10.05 0 5.1 0 0 Z " fill="#0C1A29" transform="translate(700,68)"/>
<path d="M0 0 C4.62 0 9.24 0 14 0 C14 0.33 14 0.66 14 1 C9.38 1 4.76 1 0 1 C0 0.67 0 0.34 0 0 Z " fill="#0C1A29" transform="translate(625,119)"/>
<path d="M0 0 C4.62 0 9.24 0 14 0 C14 0.33 14 0.66 14 1 C9.38 1 4.76 1 0 1 C0 0.67 0 0.34 0 0 Z " fill="#0C1A29" transform="translate(496,119)"/>
<path d="M0 0 C4.29 0 8.58 0 13 0 C13 0.33 13 0.66 13 1 C8.71 1 4.42 1 0 1 C0 0.67 0 0.34 0 0 Z " fill="#0C1A29" transform="translate(390,119)"/>
<path d="M0 0 C4.29 0 8.58 0 13 0 C13 0.33 13 0.66 13 1 C8.71 1 4.42 1 0 1 C0 0.67 0 0.34 0 0 Z " fill="#0D1A2A" transform="translate(276,77)"/>
<path d="M0 0 C0.33 0 0.66 0 1 0 C1 4.29 1 8.58 1 13 C0.67 13 0.34 13 0 13 C0 8.71 0 4.42 0 0 Z " fill="#0C1A29" transform="translate(538,54)"/>
<path d="M0 0 C4.29 0 8.58 0 13 0 C13 0.33 13 0.66 13 1 C8.71 1 4.42 1 0 1 C0 0.67 0 0.34 0 0 Z " fill="#0C1A29" transform="translate(450,52)"/>
<path d="M0 0 C0.33 0 0.66 0 1 0 C1 3.96 1 7.92 1 12 C0.67 12 0.34 12 0 12 C0 8.04 0 4.08 0 0 Z " fill="#0C1A29" transform="translate(682,70)"/>
<path d="M0 0 C0.33 0 0.66 0 1 0 C1 3.63 1 7.26 1 11 C0.67 11 0.34 11 0 11 C0 7.37 0 3.74 0 0 Z " fill="#0C1A29" transform="translate(259,55)"/>
<path d="M0 0 C2.97 0 5.94 0 9 0 C9 0.33 9 0.66 9 1 C6.03 1 3.06 1 0 1 C0 0.67 0 0.34 0 0 Z " fill="#0C1A29" transform="translate(164,51)"/>
<path d="M0 0 C2.64 0 5.28 0 8 0 C8 0.33 8 0.66 8 1 C5.36 1 2.72 1 0 1 C0 0.67 0 0.34 0 0 Z " fill="#0C1A29" transform="translate(452,120)"/>
<path d="M0 0 C0.33 0 0.66 0 1 0 C1 2.31 1 4.62 1 7 C0.67 7 0.34 7 0 7 C0 4.69 0 2.38 0 0 Z " fill="#26657A" transform="translate(128,31)"/>
<path d="M0 0 C1.98 0 3.96 0 6 0 C6 0.33 6 0.66 6 1 C4.02 1 2.04 1 0 1 C0 0.67 0 0.34 0 0 Z " fill="#0C1B29" transform="translate(679,97)"/>
<path d="M0 0 C0.33 0 0.66 0 1 0 C1 1.98 1 3.96 1 6 C0.67 6 0.34 6 0 6 C0 4.02 0 2.04 0 0 Z " fill="#0C1A29" transform="translate(215,66)"/>
<path d="M0 0 C0.33 0 0.66 0 1 0 C1 1.65 1 3.3 1 5 C0.67 5 0.34 5 0 5 C0 3.35 0 1.7 0 0 Z " fill="#0C1A29" transform="translate(215,100)"/>
<path d="M0 0 C0.33 0 0.66 0 1 0 C1 1.65 1 3.3 1 5 C0.67 5 0.34 5 0 5 C0 3.35 0 1.7 0 0 Z " fill="#0D1737" transform="translate(51,69)"/>
<path d="M0 0 C1.65 0 3.3 0 5 0 C5 0.33 5 0.66 5 1 C3.35 1 1.7 1 0 1 C0 0.67 0 0.34 0 0 Z " fill="#27657B" transform="translate(80,57)"/>
<path d="M0 0 C1.65 0 3.3 0 5 0 C5 0.33 5 0.66 5 1 C3.35 1 1.7 1 0 1 C0 0.67 0 0.34 0 0 Z " fill="#0C1A29" transform="translate(746,51)"/>
<path d="M0 0 C1.65 0 3.3 0 5 0 C5 0.33 5 0.66 5 1 C3.35 1 1.7 1 0 1 C0 0.67 0 0.34 0 0 Z " fill="#0C1A29" transform="translate(568,51)"/>
<path d="M0 0 C1.65 0 3.3 0 5 0 C5 0.33 5 0.66 5 1 C3.35 1 1.7 1 0 1 C0 0.67 0 0.34 0 0 Z " fill="#0C1A29" transform="translate(397,51)"/>
<path d="M0 0 C1.65 0 3.3 0 5 0 C5 0.33 5 0.66 5 1 C3.35 1 1.7 1 0 1 C0 0.67 0 0.34 0 0 Z " fill="#0C1A29" transform="translate(333,51)"/>
<path d="M0 0 C4 1 4 1 4 1 Z " fill="#0C1A29" transform="translate(273,118)"/>
<path d="M0 0 C4 1 4 1 4 1 Z " fill="#0D1A2A" transform="translate(229,118)"/>
<path d="M0 0 C4 1 4 1 4 1 Z " fill="#0C1A29" transform="translate(685,96)"/>
<path d="M0 0 C4 1 4 1 4 1 Z " fill="#0D1738" transform="translate(3,96)"/>
<path d="M0 0 C1 4 1 4 1 4 Z " fill="#0C1B29" transform="translate(699,83)"/>
<path d="M0 0 C0 3 0 3 0 3 Z " fill="#0C1B29" transform="translate(337,70)"/>
<path d="M0 0 C1.485 0.99 1.485 0.99 3 2 C2.01 2 1.02 2 0 2 C0 1.34 0 0.68 0 0 Z " fill="#0D1737" transform="translate(41,64)"/>
<path d="M0 0 C4 1 4 1 4 1 Z " fill="#0C1A2A" transform="translate(683,53)"/>
<path d="M0 0 C4 1 4 1 4 1 Z " fill="#0C1A2A" transform="translate(228,53)"/>
<path d="M0 0 C1 4 1 4 1 4 Z " fill="#0C1737" transform="translate(7,50)"/>
<path d="M0 0 C1 4 1 4 1 4 Z " fill="#0D1837" transform="translate(15,22)"/>
<path d="" fill="#0C1A29" transform="translate(0,0)"/>
<path d="" fill="#26667A" transform="translate(0,0)"/>
<path d="" fill="#0D1A29" transform="translate(0,0)"/>
<path d="" fill="#26657A" transform="translate(0,0)"/>
<path d="M0 0 C3 1 3 1 3 1 Z " fill="#0C1B2A" transform="translate(269,102)"/>
<path d="M0 0 C3 1 3 1 3 1 Z " fill="#0C1B2A" transform="translate(234,102)"/>
<path d="" fill="#27667B" transform="translate(0,0)"/>
<path d="" fill="#26657B" transform="translate(0,0)"/>
<path d="" fill="#26657B" transform="translate(0,0)"/>
<path d="" fill="#26657A" transform="translate(0,0)"/>
<path d="" fill="#26657A" transform="translate(0,0)"/>
<path d="M0 0 C3 1 3 1 3 1 Z " fill="#0D1B29" transform="translate(679,82)"/>
<path d="" fill="#26657B" transform="translate(0,0)"/>
<path d="M0 0 C0.66 0.66 1.32 1.32 2 2 C1.34 2 0.68 2 0 2 C0 1.34 0 0.68 0 0 Z " fill="#0C1A29" transform="translate(430,78)"/>
<path d="" fill="#26657A" transform="translate(0,0)"/>
<path d="" fill="#0C1737" transform="translate(0,0)"/>
<path d="" fill="#27667A" transform="translate(0,0)"/>
<path d="" fill="#26657B" transform="translate(0,0)"/>
<path d="" fill="#0C1838" transform="translate(0,0)"/>
<path d="" fill="#26657B" transform="translate(0,0)"/>
<path d="" fill="#0C1B2A" transform="translate(0,0)"/>
<path d="" fill="#0C1B29" transform="translate(0,0)"/>
<path d="" fill="#27667A" transform="translate(0,0)"/>
<path d="" fill="#0C1838" transform="translate(0,0)"/>
<path d="M0 0 C3 1 3 1 3 1 Z " fill="#0D1B2A" transform="translate(225,54)"/>
<path d="" fill="#27667A" transform="translate(0,0)"/>
<path d="M0 0 C3 1 3 1 3 1 Z " fill="#0D1A29" transform="translate(752,51)"/>
<path d="M0 0 C3 1 3 1 3 1 Z " fill="#0D1A2A" transform="translate(574,51)"/>
<path d="M0 0 C3 1 3 1 3 1 Z " fill="#0C1A29" transform="translate(393,51)"/>
<path d="M0 0 C3 1 3 1 3 1 Z " fill="#0D1A29" transform="translate(339,51)"/>
<path d="" fill="#27657A" transform="translate(0,0)"/>
<path d="" fill="#26667B" transform="translate(0,0)"/>
<path d="" fill="#0C1737" transform="translate(0,0)"/>
<path d="" fill="#27667A" transform="translate(0,0)"/>
<path d="" fill="#26657A" transform="translate(0,0)"/>
<path d="" fill="#0D1738" transform="translate(0,0)"/>
<path d="" fill="#26667B" transform="translate(0,0)"/>
<path d="" fill="#0C1737" transform="translate(0,0)"/>
<path d="" fill="#0D1737" transform="translate(0,0)"/>
<path d="" fill="#0C1737" transform="translate(0,0)"/>
<path d="M0 0 C3 1 3 1 3 1 Z " fill="#0C1838" transform="translate(74,28)"/>
<path d="" fill="#0D1738" transform="translate(0,0)"/>
<path d="M0 0 C3 1 3 1 3 1 Z " fill="#27657B" transform="translate(120,26)"/>
<path d="" fill="#0C1737" transform="translate(0,0)"/>
<path d="" fill="#0C1838" transform="translate(0,0)"/>
<path d="M0 0 C2 1 2 1 2 1 Z " fill="#26657A" transform="translate(98,122)"/>
<path d="M0 0 C2 1 2 1 2 1 Z " fill="#0C1A29" transform="translate(450,119)"/>
<path d="" fill="#27657A" transform="translate(0,0)"/>
<path d="M0 0 C2 1 2 1 2 1 Z " fill="#0D1A29" transform="translate(673,118)"/>
<path d="" fill="#0C1B2A" transform="translate(0,0)"/>
<path d="" fill="#0D1A29" transform="translate(0,0)"/>
<path d="" fill="#0D1B2A" transform="translate(0,0)"/>
<path d="M0 0 C2 1 2 1 2 1 Z " fill="#0C1B2A" transform="translate(278,117)"/>
<path d="M0 0 C2 1 2 1 2 1 Z " fill="#0D1B2A" transform="translate(226,117)"/>
<path d="" fill="#0D1B2A" transform="translate(0,0)"/>
<path d="" fill="#26657B" transform="translate(0,0)"/>
<path d="M0 0 C2 1 2 1 2 1 Z " fill="#0D1B2A" transform="translate(670,116)"/>
<path d="" fill="#0D1B29" transform="translate(0,0)"/>
<path d="" fill="#0C1A29" transform="translate(0,0)"/>
<path d="M0 0 C2 1 2 1 2 1 Z " fill="#0C1B29" transform="translate(668,115)"/>
<path d="" fill="#0D1B2A" transform="translate(0,0)"/>
<path d="" fill="#0D1B2A" transform="translate(0,0)"/>
<path d="" fill="#0C1B29" transform="translate(0,0)"/>
<path d="M0 0 C2 1 2 1 2 1 Z " fill="#0C1A2A" transform="translate(282,115)"/>
<path d="M0 0 C2 1 2 1 2 1 Z " fill="#0D1A2A" transform="translate(222,115)"/>
<path d="" fill="#0D1B2A" transform="translate(0,0)"/>
<path d="" fill="#27667B" transform="translate(0,0)"/>
<path d="" fill="#27657B" transform="translate(0,0)"/>
<path d="" fill="#0D1B29" transform="translate(0,0)"/>
<path d="" fill="#0C1A29" transform="translate(0,0)"/>
<path d="M0 0 C2 1 2 1 2 1 Z " fill="#0C1B29" transform="translate(697,114)"/>
<path d="" fill="#0C1A29" transform="translate(0,0)"/>
<path d="" fill="#0D1A2A" transform="translate(0,0)"/>
<path d="" fill="#0C1B2A" transform="translate(0,0)"/>
<path d="" fill="#0D1B2A" transform="translate(0,0)"/>
<path d="" fill="#0C1A2A" transform="translate(0,0)"/>
<path d="M0 0 C2 1 2 1 2 1 Z " fill="#0D1B2A" transform="translate(665,113)"/>
<path d="" fill="#0C1A2A" transform="translate(0,0)"/>
<path d="" fill="#0D1A2A" transform="translate(0,0)"/>
<path d="" fill="#26667B" transform="translate(0,0)"/>
<path d="" fill="#26657A" transform="translate(0,0)"/>
<path d="" fill="#0D1A29" transform="translate(0,0)"/>
<path d="M0 0 C2 1 2 1 2 1 Z " fill="#0D1B2A" transform="translate(694,112)"/>
<path d="" fill="#0C1A29" transform="translate(0,0)"/>
<path d="" fill="#0D1B2A" transform="translate(0,0)"/>
<path d="" fill="#0C1A29" transform="translate(0,0)"/>
<path d="" fill="#0D1B2A" transform="translate(0,0)"/>
<path d="" fill="#0D1B2A" transform="translate(0,0)"/>
<path d="M0 0 C2 1 2 1 2 1 Z " fill="#0D1B29" transform="translate(692,111)"/>
<path d="M0 0 C2 1 2 1 2 1 Z " fill="#0D1B2A" transform="translate(662,111)"/>
<path d="" fill="#0C1A2A" transform="translate(0,0)"/>
<path d="" fill="#0D1A2A" transform="translate(0,0)"/>
<path d="" fill="#0C1B2A" transform="translate(0,0)"/>
<path d="" fill="#0C1B2A" transform="translate(0,0)"/>
<path d="" fill="#27667B" transform="translate(0,0)"/>
<path d="" fill="#0D1B2A" transform="translate(0,0)"/>
<path d="" fill="#0D1B2A" transform="translate(0,0)"/>
<path d="" fill="#0C1B2A" transform="translate(0,0)"/>
<path d="" fill="#27667A" transform="translate(0,0)"/>
<path d="" fill="#0D1B2A" transform="translate(0,0)"/>
<path d="" fill="#0C1A29" transform="translate(0,0)"/>
<path d="" fill="#0D1B2A" transform="translate(0,0)"/>
<path d="M0 0 C2 1 2 1 2 1 Z " fill="#0D1B2A" transform="translate(689,109)"/>
<path d="" fill="#0D1B2A" transform="translate(0,0)"/>
<path d="" fill="#0C1A29" transform="translate(0,0)"/>
<path d="" fill="#0C1A29" transform="translate(0,0)"/>
<path d="" fill="#0D1B2A" transform="translate(0,0)"/>
<path d="" fill="#27657A" transform="translate(0,0)"/>
<path d="M0 0 C2 1 2 1 2 1 Z " fill="#0D1B2A" transform="translate(687,108)"/>
<path d="M0 0 C2 1 2 1 2 1 Z " fill="#0C1B2A" transform="translate(657,108)"/>
<path d="" fill="#0D1A29" transform="translate(0,0)"/>
<path d="" fill="#0D1B2A" transform="translate(0,0)"/>
<path d="" fill="#0C1B2A" transform="translate(0,0)"/>
<path d="" fill="#0D1B2A" transform="translate(0,0)"/>
<path d="" fill="#0D1B2A" transform="translate(0,0)"/>
<path d="" fill="#0D1B2A" transform="translate(0,0)"/>
<path d="" fill="#27667B" transform="translate(0,0)"/>
<path d="" fill="#0C1A29" transform="translate(0,0)"/>
<path d="" fill="#0D1B2A" transform="translate(0,0)"/>
<path d="M0 0 C2 1 2 1 2 1 Z " fill="#0C1A29" transform="translate(654,106)"/>
<path d="" fill="#0D1A29" transform="translate(0,0)"/>
<path d="" fill="#0C1A29" transform="translate(0,0)"/>
<path d="" fill="#0D1A29" transform="translate(0,0)"/>
<path d="" fill="#0C1A29" transform="translate(0,0)"/>
<path d="" fill="#0D1B2A" transform="translate(0,0)"/>
<path d="M0 0 C2 1 2 1 2 1 Z " fill="#0D1A2A" transform="translate(682,105)"/>
<path d="" fill="#0C1A29" transform="translate(0,0)"/>
<path d="" fill="#26657A" transform="translate(0,0)"/>
<path d="" fill="#0D1B2A" transform="translate(0,0)"/>
<path d="" fill="#0D1B2A" transform="translate(0,0)"/>
<path d="M0 0 C2 1 2 1 2 1 Z " fill="#0D1B2A" transform="translate(680,104)"/>
<path d="" fill="#0D1B2A" transform="translate(0,0)"/>
<path d="" fill="#0D1B2A" transform="translate(0,0)"/>
<path d="" fill="#0D1B29" transform="translate(0,0)"/>
<path d="" fill="#0D1B2A" transform="translate(0,0)"/>
<path d="M0 0 C2 1 2 1 2 1 Z " fill="#0D1B2A" transform="translate(649,103)"/>
<path d="" fill="#0D1A2A" transform="translate(0,0)"/>
<path d="" fill="#26657A" transform="translate(0,0)"/>
<path d="" fill="#0D1B2A" transform="translate(0,0)"/>
<path d="" fill="#0D1B2A" transform="translate(0,0)"/>
<path d="M0 0 C2 1 2 1 2 1 Z " fill="#0C1A29" transform="translate(431,102)"/>
<path d="" fill="#0C1B29" transform="translate(0,0)"/>
<path d="M0 0 C2 1 2 1 2 1 Z " fill="#0D1A2A" transform="translate(675,101)"/>
<path d="" fill="#0C1B29" transform="translate(0,0)"/>
<path d="" fill="#0D1B29" transform="translate(0,0)"/>
<path d="" fill="#0C1A2A" transform="translate(0,0)"/>
<path d="" fill="#0C1A2A" transform="translate(0,0)"/>
<path d="M0 0 C2 1 2 1 2 1 Z " fill="#0C1A2A" transform="translate(644,100)"/>
<path d="" fill="#0D1A29" transform="translate(0,0)"/>
<path d="" fill="#0D1A2A" transform="translate(0,0)"/>
<path d="" fill="#0C1A2A" transform="translate(0,0)"/>
<path d="" fill="#0D1B2A" transform="translate(0,0)"/>
<path d="" fill="#0D1A2A" transform="translate(0,0)"/>
<path d="M0 0 C2 1 2 1 2 1 Z " fill="#0D1B2A" transform="translate(670,98)"/>
<path d="" fill="#0D1B2A" transform="translate(0,0)"/>
<path d="M0 0 C2 1 2 1 2 1 Z " fill="#0D1A29" transform="translate(668,97)"/>
<path d="" fill="#0C1A29" transform="translate(0,0)"/>
<path d="" fill="#0C1A2A" transform="translate(0,0)"/>
<path d="" fill="#0D1B2A" transform="translate(0,0)"/>
<path d="" fill="#0D1B2A" transform="translate(0,0)"/>
<path d="M0 0 C2 1 2 1 2 1 Z " fill="#0C1B29" transform="translate(689,95)"/>
<path d="" fill="#0D1A2A" transform="translate(0,0)"/>
<path d="M0 0 C2 1 2 1 2 1 Z " fill="#27667A" transform="translate(47,95)"/>
<path d="M0 0 C2 1 2 1 2 1 Z " fill="#0D1838" transform="translate(1,95)"/>
<path d="" fill="#0C1A2A" transform="translate(0,0)"/>
<path d="" fill="#0D1B2A" transform="translate(0,0)"/>
<path d="" fill="#0D1B2A" transform="translate(0,0)"/>
<path d="M0 0 C2 1 2 1 2 1 Z " fill="#27667A" transform="translate(49,94)"/>
<path d="" fill="#0D1B29" transform="translate(0,0)"/>
<path d="" fill="#0D1B2A" transform="translate(0,0)"/>
<path d="" fill="#0D1B2A" transform="translate(0,0)"/>
<path d="" fill="#0D1738" transform="translate(0,0)"/>
<path d="" fill="#0D1A2A" transform="translate(0,0)"/>
<path d="" fill="#0C1A2A" transform="translate(0,0)"/>
<path d="" fill="#0C1A29" transform="translate(0,0)"/>
<path d="" fill="#0C1A2A" transform="translate(0,0)"/>
<path d="" fill="#0D1738" transform="translate(0,0)"/>
<path d="" fill="#0C1A29" transform="translate(0,0)"/>
<path d="" fill="#0C1B2A" transform="translate(0,0)"/>
<path d="" fill="#0D1A2A" transform="translate(0,0)"/>
<path d="" fill="#0C1B2A" transform="translate(0,0)"/>
<path d="" fill="#27667B" transform="translate(0,0)"/>
<path d="" fill="#0C1737" transform="translate(0,0)"/>
<path d="" fill="#0C1A29" transform="translate(0,0)"/>
<path d="" fill="#0D1B2A" transform="translate(0,0)"/>
<path d="" fill="#0D1B2A" transform="translate(0,0)"/>
<path d="" fill="#0D1838" transform="translate(0,0)"/>
<path d="" fill="#0C1A29" transform="translate(0,0)"/>
<path d="" fill="#0C1A29" transform="translate(0,0)"/>
<path d="M0 0 C2 1 2 1 2 1 Z " fill="#0C1A2A" transform="translate(414,86)"/>
<path d="" fill="#0D1B2A" transform="translate(0,0)"/>
<path d="" fill="#0C1B2A" transform="translate(0,0)"/>
<path d="" fill="#26667A" transform="translate(0,0)"/>
<path d="" fill="#0D1B2A" transform="translate(0,0)"/>
<path d="" fill="#0C1A2A" transform="translate(0,0)"/>
<path d="" fill="#0D1A2A" transform="translate(0,0)"/>
<path d="" fill="#0C1A2A" transform="translate(0,0)"/>
<path d="" fill="#0D1B2A" transform="translate(0,0)"/>
<path d="" fill="#0D1838" transform="translate(0,0)"/>
<path d="" fill="#0D1A29" transform="translate(0,0)"/>
<path d="" fill="#0D1A2A" transform="translate(0,0)"/>
<path d="" fill="#0D1B2A" transform="translate(0,0)"/>
<path d="" fill="#0D1B2A" transform="translate(0,0)"/>
<path d="" fill="#0D1B29" transform="translate(0,0)"/>
<path d="" fill="#0D1B2A" transform="translate(0,0)"/>
<path d="" fill="#0C1B2A" transform="translate(0,0)"/>
<path d="" fill="#0D1B2A" transform="translate(0,0)"/>
<path d="" fill="#0C1A2A" transform="translate(0,0)"/>
<path d="" fill="#0D1A29" transform="translate(0,0)"/>
<path d="" fill="#0D1A2A" transform="translate(0,0)"/>
<path d="" fill="#26657A" transform="translate(0,0)"/>
<path d="" fill="#0D1837" transform="translate(0,0)"/>
<path d="" fill="#0D1B29" transform="translate(0,0)"/>
<path d="" fill="#0D1A29" transform="translate(0,0)"/>
<path d="" fill="#0D1B2A" transform="translate(0,0)"/>
<path d="" fill="#0C1A2A" transform="translate(0,0)"/>
<path d="" fill="#0C1A29" transform="translate(0,0)"/>
<path d="" fill="#0D1737" transform="translate(0,0)"/>
<path d="" fill="#0D1B29" transform="translate(0,0)"/>
<path d="" fill="#0D1B2A" transform="translate(0,0)"/>
<path d="" fill="#0D1B2A" transform="translate(0,0)"/>
<path d="" fill="#0D1B2A" transform="translate(0,0)"/>
<path d="" fill="#0D1A2A" transform="translate(0,0)"/>
<path d="" fill="#0D1B29" transform="translate(0,0)"/>
<path d="" fill="#0C1A29" transform="translate(0,0)"/>
<path d="" fill="#27667A" transform="translate(0,0)"/>
<path d="" fill="#0D1B2A" transform="translate(0,0)"/>
<path d="" fill="#0C1737" transform="translate(0,0)"/>
<path d="" fill="#0D1A29" transform="translate(0,0)"/>
<path d="" fill="#0D1B2A" transform="translate(0,0)"/>
<path d="" fill="#0D1B2A" transform="translate(0,0)"/>
<path d="" fill="#0D1A29" transform="translate(0,0)"/>
<path d="" fill="#0D1B2A" transform="translate(0,0)"/>
<path d="" fill="#0D1B2A" transform="translate(0,0)"/>
<path d="" fill="#0D1B2A" transform="translate(0,0)"/>
<path d="" fill="#0D1A2A" transform="translate(0,0)"/>
<path d="" fill="#0D1B2A" transform="translate(0,0)"/>
<path d="" fill="#0C1B2A" transform="translate(0,0)"/>
<path d="" fill="#0C1A29" transform="translate(0,0)"/>
<path d="" fill="#0D1A2A" transform="translate(0,0)"/>
<path d="" fill="#0C1A29" transform="translate(0,0)"/>
<path d="" fill="#26657A" transform="translate(0,0)"/>
<path d="" fill="#0C1738" transform="translate(0,0)"/>
<path d="" fill="#0C1B29" transform="translate(0,0)"/>
<path d="" fill="#0C1A29" transform="translate(0,0)"/>
<path d="" fill="#0D1B2A" transform="translate(0,0)"/>
<path d="" fill="#0C1B29" transform="translate(0,0)"/>
<path d="" fill="#0D1B29" transform="translate(0,0)"/>
<path d="" fill="#0D1A2A" transform="translate(0,0)"/>
<path d="" fill="#0C1A29" transform="translate(0,0)"/>
<path d="" fill="#0D1838" transform="translate(0,0)"/>
<path d="" fill="#0D1A2A" transform="translate(0,0)"/>
<path d="" fill="#0D1A29" transform="translate(0,0)"/>
<path d="" fill="#26657A" transform="translate(0,0)"/>
<path d="" fill="#0D1A2A" transform="translate(0,0)"/>
<path d="" fill="#0C1A29" transform="translate(0,0)"/>
<path d="" fill="#0C1A29" transform="translate(0,0)"/>
<path d="" fill="#0C1A29" transform="translate(0,0)"/>
<path d="" fill="#0C1A29" transform="translate(0,0)"/>
<path d="" fill="#0D1B2A" transform="translate(0,0)"/>
<path d="" fill="#0D1A29" transform="translate(0,0)"/>
<path d="" fill="#0C1737" transform="translate(0,0)"/>
<path d="" fill="#0D1B2A" transform="translate(0,0)"/>
<path d="M0 0 C2 1 2 1 2 1 Z " fill="#0C1A2A" transform="translate(749,71)"/>
<path d="M0 0 C2 1 2 1 2 1 Z " fill="#0D1B2A" transform="translate(571,71)"/>
<path d="M0 0 C2 1 2 1 2 1 Z " fill="#0D1B2A" transform="translate(422,71)"/>
<path d="" fill="#0C1A29" transform="translate(0,0)"/>
<path d="" fill="#0D1B2A" transform="translate(0,0)"/>
<path d="" fill="#27667A" transform="translate(0,0)"/>
<path d="" fill="#0D1B2A" transform="translate(0,0)"/>
<path d="" fill="#0C1B2A" transform="translate(0,0)"/>
<path d="" fill="#0C1B2A" transform="translate(0,0)"/>
<path d="" fill="#0C1B2A" transform="translate(0,0)"/>
<path d="" fill="#0D1A2A" transform="translate(0,0)"/>
<path d="M0 0 C2 1 2 1 2 1 Z " fill="#0C1B2A" transform="translate(234,69)"/>
<path d="" fill="#0D1A2A" transform="translate(0,0)"/>
<path d="" fill="#0D1B2A" transform="translate(0,0)"/>
<path d="" fill="#0D1A2A" transform="translate(0,0)"/>
<path d="" fill="#26667A" transform="translate(0,0)"/>
<path d="" fill="#0C1A2A" transform="translate(0,0)"/>
<path d="" fill="#0C1A29" transform="translate(0,0)"/>
<path d="" fill="#0D1A2A" transform="translate(0,0)"/>
<path d="" fill="#0D1B2A" transform="translate(0,0)"/>
<path d="" fill="#0C1B29" transform="translate(0,0)"/>
<path d="M0 0 C2 1 2 1 2 1 Z " fill="#0D1838" transform="translate(47,66)"/>
<path d="" fill="#0C1737" transform="translate(0,0)"/>
<path d="" fill="#0D1A29" transform="translate(0,0)"/>
<path d="" fill="#0C1B29" transform="translate(0,0)"/>
<path d="" fill="#0C1A2A" transform="translate(0,0)"/>
<path d="" fill="#27657A" transform="translate(0,0)"/>
<path d="" fill="#0C1A29" transform="translate(0,0)"/>
<path d="" fill="#0D1B2A" transform="translate(0,0)"/>
<path d="" fill="#0D1B2A" transform="translate(0,0)"/>
<path d="" fill="#0D1A2A" transform="translate(0,0)"/>
<path d="" fill="#0C1A29" transform="translate(0,0)"/>
<path d="" fill="#0D1A29" transform="translate(0,0)"/>
<path d="" fill="#0D1B2A" transform="translate(0,0)"/>
<path d="" fill="#0D1B29" transform="translate(0,0)"/>
<path d="" fill="#0D1B2A" transform="translate(0,0)"/>
<path d="" fill="#0C1B2A" transform="translate(0,0)"/>
<path d="" fill="#0D1B2A" transform="translate(0,0)"/>
<path d="" fill="#0D1B29" transform="translate(0,0)"/>
<path d="" fill="#0C1A29" transform="translate(0,0)"/>
<path d="" fill="#0D1A2A" transform="translate(0,0)"/>
<path d="" fill="#0C1A29" transform="translate(0,0)"/>
<path d="" fill="#0D1A2A" transform="translate(0,0)"/>
<path d="" fill="#0D1B2A" transform="translate(0,0)"/>
<path d="" fill="#0D1A2A" transform="translate(0,0)"/>
<path d="" fill="#0C1738" transform="translate(0,0)"/>
<path d="" fill="#0D1B2A" transform="translate(0,0)"/>
<path d="" fill="#0D1A2A" transform="translate(0,0)"/>
<path d="" fill="#0D1B2A" transform="translate(0,0)"/>
<path d="" fill="#27667B" transform="translate(0,0)"/>
<path d="M0 0 C2 1 2 1 2 1 Z " fill="#0C1B29" transform="translate(692,56)"/>
<path d="M0 0 C2 1 2 1 2 1 Z " fill="#26657A" transform="translate(78,56)"/>
<path d="" fill="#0C1738" transform="translate(0,0)"/>
<path d="M0 0 C2 1 2 1 2 1 Z " fill="#0D1B2A" transform="translate(688,54)"/>
<path d="M0 0 C2 1 2 1 2 1 Z " fill="#0D1B2A" transform="translate(403,53)"/>
<path d="M0 0 C2 1 2 1 2 1 Z " fill="#0D1B2A" transform="translate(344,53)"/>
<path d="" fill="#0D1738" transform="translate(0,0)"/>
<path d="M0 0 C2 1 2 1 2 1 Z " fill="#0C1A29" transform="translate(755,52)"/>
<path d="M0 0 C2 1 2 1 2 1 Z " fill="#0C1A29" transform="translate(577,52)"/>
<path d="M0 0 C2 1 2 1 2 1 Z " fill="#0D1A2A" transform="translate(173,52)"/>
<path d="M0 0 C2 1 2 1 2 1 Z " fill="#0D1B2A" transform="translate(161,52)"/>
<path d="" fill="#0D1838" transform="translate(0,0)"/>
<path d="" fill="#26657A" transform="translate(0,0)"/>
<path d="" fill="#0C1737" transform="translate(0,0)"/>
<path d="" fill="#0D1837" transform="translate(0,0)"/>
<path d="" fill="#0D1838" transform="translate(0,0)"/>
<path d="" fill="#0C1737" transform="translate(0,0)"/>
<path d="" fill="#0D1838" transform="translate(0,0)"/>
<path d="" fill="#0C1737" transform="translate(0,0)"/>
<path d="" fill="#0D1838" transform="translate(0,0)"/>
<path d="" fill="#0D1838" transform="translate(0,0)"/>
<path d="" fill="#0D1838" transform="translate(0,0)"/>
<path d="" fill="#0D1738" transform="translate(0,0)"/>
<path d="" fill="#0C1737" transform="translate(0,0)"/>
<path d="" fill="#0D1737" transform="translate(0,0)"/>
<path d="" fill="#27667A" transform="translate(0,0)"/>
<path d="" fill="#27667A" transform="translate(0,0)"/>
<path d="" fill="#27667B" transform="translate(0,0)"/>
<path d="" fill="#26657A" transform="translate(0,0)"/>
<path d="" fill="#0C1A2A" transform="translate(0,0)"/>
<path d="" fill="#27667B" transform="translate(0,0)"/>
<path d="" fill="#0C1A2A" transform="translate(0,0)"/>
<path d="" fill="#0D1B2A" transform="translate(0,0)"/>
<path d="" fill="#0C1B29" transform="translate(0,0)"/>
<path d="" fill="#0D1B2A" transform="translate(0,0)"/>
<path d="" fill="#0D1B2A" transform="translate(0,0)"/>
<path d="" fill="#0D1B2A" transform="translate(0,0)"/>
<path d="" fill="#0D1B2A" transform="translate(0,0)"/>
<path d="" fill="#0C1A29" transform="translate(0,0)"/>
<path d="" fill="#0C1A29" transform="translate(0,0)"/>
<path d="" fill="#0D1B2A" transform="translate(0,0)"/>
<path d="" fill="#0D1B2A" transform="translate(0,0)"/>
<path d="" fill="#0D1A2A" transform="translate(0,0)"/>
<path d="" fill="#0D1B2A" transform="translate(0,0)"/>
<path d="" fill="#27667B" transform="translate(0,0)"/>
<path d="" fill="#0D1A29" transform="translate(0,0)"/>
<path d="" fill="#0D1B2A" transform="translate(0,0)"/>
<path d="" fill="#0D1B2A" transform="translate(0,0)"/>
<path d="" fill="#0D1B2A" transform="translate(0,0)"/>
<path d="" fill="#0C1B2A" transform="translate(0,0)"/>
<path d="" fill="#0D1B2A" transform="translate(0,0)"/>
<path d="" fill="#0C1B29" transform="translate(0,0)"/>
<path d="" fill="#0D1B2A" transform="translate(0,0)"/>
<path d="" fill="#0C1B29" transform="translate(0,0)"/>
<path d="" fill="#0C1B29" transform="translate(0,0)"/>
<path d="" fill="#0D1B2A" transform="translate(0,0)"/>
<path d="" fill="#0D1B2A" transform="translate(0,0)"/>
<path d="" fill="#0C1A2A" transform="translate(0,0)"/>
<path d="" fill="#0D1B2A" transform="translate(0,0)"/>
<path d="" fill="#0D1B2A" transform="translate(0,0)"/>
<path d="" fill="#27667B" transform="translate(0,0)"/>
<path d="" fill="#0D1B2A" transform="translate(0,0)"/>
<path d="" fill="#0D1B2A" transform="translate(0,0)"/>
<path d="" fill="#0C1B2A" transform="translate(0,0)"/>
<path d="" fill="#0D1B2A" transform="translate(0,0)"/>
<path d="" fill="#0C1A29" transform="translate(0,0)"/>
<path d="" fill="#0D1B2A" transform="translate(0,0)"/>
<path d="" fill="#0D1B2A" transform="translate(0,0)"/>
<path d="" fill="#0C1B2A" transform="translate(0,0)"/>
<path d="" fill="#0D1B2A" transform="translate(0,0)"/>
<path d="" fill="#0D1A29" transform="translate(0,0)"/>
<path d="" fill="#0D1B2A" transform="translate(0,0)"/>
<path d="" fill="#0C1B2A" transform="translate(0,0)"/>
<path d="" fill="#0D1B2A" transform="translate(0,0)"/>
<path d="" fill="#0D1B2A" transform="translate(0,0)"/>
<path d="" fill="#0D1B2A" transform="translate(0,0)"/>
<path d="" fill="#0D1B2A" transform="translate(0,0)"/>
<path d="" fill="#0D1B2A" transform="translate(0,0)"/>
<path d="" fill="#0C1A2A" transform="translate(0,0)"/>
<path d="" fill="#0D1B2A" transform="translate(0,0)"/>
<path d="" fill="#0D1B2A" transform="translate(0,0)"/>
<path d="" fill="#0D1B2A" transform="translate(0,0)"/>
<path d="" fill="#0D1B2A" transform="translate(0,0)"/>
<path d="" fill="#0D1B2A" transform="translate(0,0)"/>
<path d="" fill="#0D1A2A" transform="translate(0,0)"/>
<path d="" fill="#0D1B2A" transform="translate(0,0)"/>
<path d="" fill="#0D1B2A" transform="translate(0,0)"/>
<path d="" fill="#0C1A29" transform="translate(0,0)"/>
<path d="" fill="#0D1B2A" transform="translate(0,0)"/>
<path d="" fill="#0C1B2A" transform="translate(0,0)"/>
<path d="" fill="#0D1B2A" transform="translate(0,0)"/>
<path d="" fill="#0D1A2A" transform="translate(0,0)"/>
<path d="" fill="#0D1B2A" transform="translate(0,0)"/>
<path d="" fill="#0D1A2A" transform="translate(0,0)"/>
<path d="" fill="#0C1A29" transform="translate(0,0)"/>
<path d="" fill="#0C1A2A" transform="translate(0,0)"/>
<path d="" fill="#0C1A29" transform="translate(0,0)"/>
<path d="" fill="#0C1B2A" transform="translate(0,0)"/>
<path d="" fill="#0C1B29" transform="translate(0,0)"/>
<path d="" fill="#0C1B2A" transform="translate(0,0)"/>
<path d="" fill="#0D1B2A" transform="translate(0,0)"/>
<path d="" fill="#0C1B2A" transform="translate(0,0)"/>
<path d="" fill="#0D1B2A" transform="translate(0,0)"/>
<path d="" fill="#0C1A29" transform="translate(0,0)"/>
<path d="" fill="#0D1B2A" transform="translate(0,0)"/>
<path d="" fill="#0C1B2A" transform="translate(0,0)"/>
<path d="" fill="#0D1B2A" transform="translate(0,0)"/>
<path d="" fill="#0D1B2A" transform="translate(0,0)"/>
<path d="" fill="#0C1B29" transform="translate(0,0)"/>
<path d="" fill="#0D1B2A" transform="translate(0,0)"/>
<path d="" fill="#0D1B2A" transform="translate(0,0)"/>
<path d="" fill="#0C1A2A" transform="translate(0,0)"/>
<path d="" fill="#0D1A2A" transform="translate(0,0)"/>
<path d="" fill="#0D1B2A" transform="translate(0,0)"/>
<path d="" fill="#0D1B2A" transform="translate(0,0)"/>
<path d="" fill="#0D1A2A" transform="translate(0,0)"/>
<path d="" fill="#0C1B2A" transform="translate(0,0)"/>
<path d="" fill="#0D1A29" transform="translate(0,0)"/>
<path d="" fill="#0D1B2A" transform="translate(0,0)"/>
<path d="" fill="#0D1B2A" transform="translate(0,0)"/>
<path d="" fill="#0D1B29" transform="translate(0,0)"/>
<path d="" fill="#0D1A2A" transform="translate(0,0)"/>
<path d="" fill="#0D1B2A" transform="translate(0,0)"/>
<path d="" fill="#0D1B2A" transform="translate(0,0)"/>
<path d="" fill="#0D1B2A" transform="translate(0,0)"/>
<path d="" fill="#0D1B2A" transform="translate(0,0)"/>
<path d="" fill="#0C1B29" transform="translate(0,0)"/>
<path d="" fill="#0D1B2A" transform="translate(0,0)"/>
<path d="" fill="#0D1B2A" transform="translate(0,0)"/>
<path d="" fill="#0D1B2A" transform="translate(0,0)"/>
<path d="" fill="#0C1A29" transform="translate(0,0)"/>
<path d="" fill="#0D1B29" transform="translate(0,0)"/>
<path d="" fill="#0C1A29" transform="translate(0,0)"/>
<path d="" fill="#0D1B2A" transform="translate(0,0)"/>
<path d="" fill="#0D1B2A" transform="translate(0,0)"/>
<path d="" fill="#0D1B2A" transform="translate(0,0)"/>
<path d="" fill="#0D1B2A" transform="translate(0,0)"/>
<path d="" fill="#0C1A29" transform="translate(0,0)"/>
<path d="" fill="#0D1B2A" transform="translate(0,0)"/>
<path d="" fill="#0D1B2A" transform="translate(0,0)"/>
<path d="" fill="#0C1A29" transform="translate(0,0)"/>
<path d="" fill="#0D1B2A" transform="translate(0,0)"/>
<path d="" fill="#0C1A29" transform="translate(0,0)"/>
<path d="" fill="#0C1A29" transform="translate(0,0)"/>
<path d="" fill="#0C1A29" transform="translate(0,0)"/>
<path d="" fill="#0D1B2A" transform="translate(0,0)"/>
<path d="" fill="#0D1B2A" transform="translate(0,0)"/>
<path d="" fill="#0D1B2A" transform="translate(0,0)"/>
<path d="" fill="#0D1B2A" transform="translate(0,0)"/>
<path d="" fill="#0D1B2A" transform="translate(0,0)"/>
<path d="" fill="#0D1A2A" transform="translate(0,0)"/>
<path d="" fill="#0D1A2A" transform="translate(0,0)"/>
<path d="" fill="#0D1B2A" transform="translate(0,0)"/>
<path d="" fill="#0D1B2A" transform="translate(0,0)"/>
<path d="" fill="#0C1A2A" transform="translate(0,0)"/>
<path d="" fill="#0D1A2A" transform="translate(0,0)"/>
<path d="" fill="#0D1B2A" transform="translate(0,0)"/>
<path d="" fill="#0D1B2A" transform="translate(0,0)"/>
<path d="" fill="#0D1B2A" transform="translate(0,0)"/>
<path d="" fill="#0D1B2A" transform="translate(0,0)"/>
<path d="" fill="#0D1B2A" transform="translate(0,0)"/>
<path d="" fill="#0D1A29" transform="translate(0,0)"/>
<path d="" fill="#0D1B2A" transform="translate(0,0)"/>
<path d="" fill="#0D1B2A" transform="translate(0,0)"/>
<path d="" fill="#0D1B2A" transform="translate(0,0)"/>
<path d="" fill="#0D1A2A" transform="translate(0,0)"/>
<path d="" fill="#0D1B2A" transform="translate(0,0)"/>
<path d="" fill="#0D1B2A" transform="translate(0,0)"/>
<path d="" fill="#0D1B2A" transform="translate(0,0)"/>
<path d="" fill="#0D1B2A" transform="translate(0,0)"/>
<path d="" fill="#0D1B29" transform="translate(0,0)"/>
<path d="" fill="#0C1B2A" transform="translate(0,0)"/>
<path d="" fill="#0D1B29" transform="translate(0,0)"/>
<path d="" fill="#27667B" transform="translate(0,0)"/>
<path d="" fill="#0D1B29" transform="translate(0,0)"/>
<path d="" fill="#0C1B29" transform="translate(0,0)"/>
<path d="" fill="#0D1B2A" transform="translate(0,0)"/>
<path d="" fill="#0D1B2A" transform="translate(0,0)"/>
<path d="" fill="#0D1A2A" transform="translate(0,0)"/>
<path d="" fill="#0D1B2A" transform="translate(0,0)"/>
<path d="" fill="#0D1B2A" transform="translate(0,0)"/>
<path d="" fill="#0D1B2A" transform="translate(0,0)"/>
<path d="" fill="#0D1B2A" transform="translate(0,0)"/>
<path d="" fill="#0C1B2A" transform="translate(0,0)"/>
<path d="" fill="#0D1B2A" transform="translate(0,0)"/>
<path d="" fill="#0D1B2A" transform="translate(0,0)"/>
<path d="" fill="#26657A" transform="translate(0,0)"/>
<path d="" fill="#0D1B2A" transform="translate(0,0)"/>
<path d="" fill="#0D1B2A" transform="translate(0,0)"/>
<path d="" fill="#0D1A2A" transform="translate(0,0)"/>
<path d="" fill="#27667A" transform="translate(0,0)"/>
<path d="" fill="#0D1B2A" transform="translate(0,0)"/>
<path d="" fill="#0C1B2A" transform="translate(0,0)"/>
<path d="" fill="#0D1B2A" transform="translate(0,0)"/>
<path d="" fill="#0D1B2A" transform="translate(0,0)"/>
<path d="" fill="#0D1B29" transform="translate(0,0)"/>
<path d="" fill="#27667B" transform="translate(0,0)"/>
<path d="" fill="#0D1B2A" transform="translate(0,0)"/>
<path d="" fill="#0C1A2A" transform="translate(0,0)"/>
<path d="" fill="#27667A" transform="translate(0,0)"/>
<path d="" fill="#0C1837" transform="translate(0,0)"/>
<path d="" fill="#0D1B2A" transform="translate(0,0)"/>
<path d="" fill="#0D1B2A" transform="translate(0,0)"/>
<path d="" fill="#0D1B2A" transform="translate(0,0)"/>
<path d="" fill="#0D1B2A" transform="translate(0,0)"/>
<path d="" fill="#0D1B29" transform="translate(0,0)"/>
<path d="" fill="#0C1A29" transform="translate(0,0)"/>
<path d="" fill="#0D1B2A" transform="translate(0,0)"/>
<path d="" fill="#0D1B2A" transform="translate(0,0)"/>
<path d="" fill="#0D1B2A" transform="translate(0,0)"/>
<path d="" fill="#0D1B2A" transform="translate(0,0)"/>
<path d="" fill="#0D1838" transform="translate(0,0)"/>
<path d="" fill="#0D1837" transform="translate(0,0)"/>
<path d="" fill="#0D1B2A" transform="translate(0,0)"/>
<path d="" fill="#0D1A2A" transform="translate(0,0)"/>
<path d="" fill="#0D1B2A" transform="translate(0,0)"/>
<path d="" fill="#0C1A2A" transform="translate(0,0)"/>
<path d="" fill="#0D1B2A" transform="translate(0,0)"/>
<path d="" fill="#0D1B2A" transform="translate(0,0)"/>
<path d="" fill="#0C1A29" transform="translate(0,0)"/>
<path d="" fill="#0D1B2A" transform="translate(0,0)"/>
<path d="" fill="#0D1B2A" transform="translate(0,0)"/>
<path d="" fill="#0D1B2A" transform="translate(0,0)"/>
<path d="" fill="#0D1A2A" transform="translate(0,0)"/>
<path d="" fill="#0D1B2A" transform="translate(0,0)"/>
<path d="" fill="#0C1B2A" transform="translate(0,0)"/>
<path d="" fill="#0C1A29" transform="translate(0,0)"/>
<path d="" fill="#0D1B2A" transform="translate(0,0)"/>
<path d="" fill="#0C1A2A" transform="translate(0,0)"/>
<path d="" fill="#0C1A29" transform="translate(0,0)"/>
<path d="" fill="#0D1B2A" transform="translate(0,0)"/>
<path d="" fill="#0D1A2A" transform="translate(0,0)"/>
<path d="" fill="#0C1B29" transform="translate(0,0)"/>
<path d="" fill="#0D1B2A" transform="translate(0,0)"/>
<path d="" fill="#0C1A29" transform="translate(0,0)"/>
<path d="" fill="#0C1A2A" transform="translate(0,0)"/>
<path d="" fill="#0D1B2A" transform="translate(0,0)"/>
<path d="" fill="#0D1B2A" transform="translate(0,0)"/>
<path d="" fill="#0D1B2A" transform="translate(0,0)"/>
<path d="" fill="#0D1B2A" transform="translate(0,0)"/>
<path d="" fill="#0D1B2A" transform="translate(0,0)"/>
<path d="" fill="#0D1B2A" transform="translate(0,0)"/>
<path d="" fill="#0D1B2A" transform="translate(0,0)"/>
<path d="" fill="#0C1A2A" transform="translate(0,0)"/>
<path d="" fill="#0C1B2A" transform="translate(0,0)"/>
<path d="" fill="#0D1B2A" transform="translate(0,0)"/>
<path d="" fill="#0D1B2A" transform="translate(0,0)"/>
<path d="" fill="#0D1B29" transform="translate(0,0)"/>
<path d="" fill="#0D1B2A" transform="translate(0,0)"/>
<path d="" fill="#0D1B2A" transform="translate(0,0)"/>
<path d="" fill="#0D1B2A" transform="translate(0,0)"/>
<path d="" fill="#0D1A29" transform="translate(0,0)"/>
<path d="" fill="#0D1B2A" transform="translate(0,0)"/>
<path d="" fill="#0D1B2A" transform="translate(0,0)"/>
<path d="" fill="#0D1B29" transform="translate(0,0)"/>
<path d="" fill="#0C1B29" transform="translate(0,0)"/>
<path d="" fill="#0C1B2A" transform="translate(0,0)"/>
<path d="" fill="#0C1B2A" transform="translate(0,0)"/>
<path d="" fill="#0D1B2A" transform="translate(0,0)"/>
<path d="" fill="#0C1B2A" transform="translate(0,0)"/>
<path d="" fill="#0D1B2A" transform="translate(0,0)"/>
<path d="" fill="#0D1B2A" transform="translate(0,0)"/>
<path d="" fill="#0D1A2A" transform="translate(0,0)"/>
<path d="" fill="#0D1B29" transform="translate(0,0)"/>
<path d="" fill="#0C1B2A" transform="translate(0,0)"/>
<path d="" fill="#0C1A29" transform="translate(0,0)"/>
<path d="" fill="#0D1B2A" transform="translate(0,0)"/>
<path d="" fill="#0D1B2A" transform="translate(0,0)"/>
<path d="" fill="#0D1B2A" transform="translate(0,0)"/>
<path d="" fill="#0D1B2A" transform="translate(0,0)"/>
<path d="" fill="#0D1B2A" transform="translate(0,0)"/>
<path d="" fill="#0D1B2A" transform="translate(0,0)"/>
<path d="" fill="#0D1B2A" transform="translate(0,0)"/>
<path d="" fill="#0D1B2A" transform="translate(0,0)"/>
<path d="" fill="#0D1B2A" transform="translate(0,0)"/>
<path d="" fill="#0D1B2A" transform="translate(0,0)"/>
<path d="" fill="#0D1B2A" transform="translate(0,0)"/>
<path d="" fill="#0D1B2A" transform="translate(0,0)"/>
<path d="" fill="#0D1A29" transform="translate(0,0)"/>
<path d="" fill="#0D1A2A" transform="translate(0,0)"/>
<path d="" fill="#0C1A2A" transform="translate(0,0)"/>
<path d="" fill="#0D1B2A" transform="translate(0,0)"/>
<path d="" fill="#0D1B2A" transform="translate(0,0)"/>
<path d="" fill="#0D1B29" transform="translate(0,0)"/>
<path d="" fill="#0D1B2A" transform="translate(0,0)"/>
<path d="" fill="#0C1A29" transform="translate(0,0)"/>
<path d="" fill="#0D1B2A" transform="translate(0,0)"/>
<path d="" fill="#0D1B29" transform="translate(0,0)"/>
<path d="" fill="#0C1A29" transform="translate(0,0)"/>
<path d="" fill="#0D1B2A" transform="translate(0,0)"/>
<path d="" fill="#0D1B2A" transform="translate(0,0)"/>
<path d="" fill="#0D1B2A" transform="translate(0,0)"/>
<path d="" fill="#0D1B2A" transform="translate(0,0)"/>
<path d="" fill="#0D1B2A" transform="translate(0,0)"/>
<path d="" fill="#0D1B2A" transform="translate(0,0)"/>
<path d="" fill="#0D1B2A" transform="translate(0,0)"/>
<path d="" fill="#0D1B2A" transform="translate(0,0)"/>
<path d="" fill="#0D1B2A" transform="translate(0,0)"/>
<path d="" fill="#0C1A2A" transform="translate(0,0)"/>
<path d="" fill="#0D1B2A" transform="translate(0,0)"/>
<path d="" fill="#0C1A29" transform="translate(0,0)"/>
<path d="" fill="#0D1B2A" transform="translate(0,0)"/>
<path d="" fill="#0D1B2A" transform="translate(0,0)"/>
<path d="" fill="#0D1B2A" transform="translate(0,0)"/>
<path d="" fill="#0D1B2A" transform="translate(0,0)"/>
<path d="" fill="#0D1B2A" transform="translate(0,0)"/>
<path d="" fill="#0D1B2A" transform="translate(0,0)"/>
<path d="" fill="#0D1B2A" transform="translate(0,0)"/>
<path d="" fill="#0D1B2A" transform="translate(0,0)"/>
<path d="" fill="#0C1A2A" transform="translate(0,0)"/>
<path d="" fill="#0D1B2A" transform="translate(0,0)"/>
<path d="" fill="#0C1B29" transform="translate(0,0)"/>
<path d="" fill="#0C1B2A" transform="translate(0,0)"/>
<path d="" fill="#0D1B2A" transform="translate(0,0)"/>
<path d="" fill="#0D1B2A" transform="translate(0,0)"/>
<path d="" fill="#0D1B2A" transform="translate(0,0)"/>
<path d="" fill="#0D1A2A" transform="translate(0,0)"/>
<path d="" fill="#0D1B2A" transform="translate(0,0)"/>
<path d="" fill="#0D1B2A" transform="translate(0,0)"/>
<path d="" fill="#0D1B2A" transform="translate(0,0)"/>
<path d="" fill="#0D1B2A" transform="translate(0,0)"/>
<path d="" fill="#0D1B2A" transform="translate(0,0)"/>
<path d="" fill="#0C1A2A" transform="translate(0,0)"/>
<path d="" fill="#0D1B2A" transform="translate(0,0)"/>
<path d="" fill="#0D1B2A" transform="translate(0,0)"/>
<path d="" fill="#0D1B29" transform="translate(0,0)"/>
<path d="" fill="#0C1A2A" transform="translate(0,0)"/>
<path d="" fill="#0D1B2A" transform="translate(0,0)"/>
<path d="" fill="#0D1A29" transform="translate(0,0)"/>
<path d="" fill="#0D1B2A" transform="translate(0,0)"/>
<path d="" fill="#0D1B2A" transform="translate(0,0)"/>
<path d="" fill="#0D1B2A" transform="translate(0,0)"/>
<path d="" fill="#0D1B2A" transform="translate(0,0)"/>
<path d="" fill="#0C1B2A" transform="translate(0,0)"/>
<path d="" fill="#0C1B29" transform="translate(0,0)"/>
<path d="" fill="#0D1B2A" transform="translate(0,0)"/>
<path d="" fill="#0D1B2A" transform="translate(0,0)"/>
<path d="" fill="#0D1B2A" transform="translate(0,0)"/>
<path d="" fill="#0C1B2A" transform="translate(0,0)"/>
<path d="" fill="#0C1A29" transform="translate(0,0)"/>
<path d="" fill="#0D1B2A" transform="translate(0,0)"/>
<path d="" fill="#0D1B2A" transform="translate(0,0)"/>
<path d="" fill="#0D1B2A" transform="translate(0,0)"/>
<path d="" fill="#0D1B2A" transform="translate(0,0)"/>
<path d="" fill="#0D1B2A" transform="translate(0,0)"/>
<path d="" fill="#0D1A2A" transform="translate(0,0)"/>
<path d="" fill="#0D1B2A" transform="translate(0,0)"/>
<path d="" fill="#0D1B2A" transform="translate(0,0)"/>
<path d="" fill="#0D1B2A" transform="translate(0,0)"/>
<path d="" fill="#0D1B2A" transform="translate(0,0)"/>
<path d="" fill="#0C1A2A" transform="translate(0,0)"/>
<path d="" fill="#0D1A2A" transform="translate(0,0)"/>
<path d="" fill="#0D1B2A" transform="translate(0,0)"/>
<path d="" fill="#0D1B2A" transform="translate(0,0)"/>
<path d="" fill="#0D1B2A" transform="translate(0,0)"/>
<path d="" fill="#0D1B2A" transform="translate(0,0)"/>
<path d="" fill="#0C1A29" transform="translate(0,0)"/>
<path d="" fill="#0D1B2A" transform="translate(0,0)"/>
<path d="" fill="#0C1B2A" transform="translate(0,0)"/>
<path d="" fill="#0C1A2A" transform="translate(0,0)"/>
<path d="" fill="#0D1B2A" transform="translate(0,0)"/>
<path d="" fill="#0D1B2A" transform="translate(0,0)"/>
<path d="" fill="#0D1B2A" transform="translate(0,0)"/>
<path d="" fill="#0D1B2A" transform="translate(0,0)"/>
<path d="" fill="#0D1B2A" transform="translate(0,0)"/>
<path d="" fill="#0D1B2A" transform="translate(0,0)"/>
<path d="" fill="#0D1B2A" transform="translate(0,0)"/>
<path d="" fill="#0C1A2A" transform="translate(0,0)"/>
<path d="" fill="#0D1B2A" transform="translate(0,0)"/>
<path d="" fill="#0D1B2A" transform="translate(0,0)"/>
<path d="" fill="#0D1A2A" transform="translate(0,0)"/>
<path d="" fill="#0D1B2A" transform="translate(0,0)"/>
<path d="" fill="#0D1B2A" transform="translate(0,0)"/>
<path d="" fill="#0D1B2A" transform="translate(0,0)"/>
<path d="" fill="#0D1B2A" transform="translate(0,0)"/>
<path d="" fill="#0D1B29" transform="translate(0,0)"/>
<path d="" fill="#0D1B2A" transform="translate(0,0)"/>
<path d="" fill="#0D1B2A" transform="translate(0,0)"/>
<path d="" fill="#0D1838" transform="translate(0,0)"/>
<path d="" fill="#0C1A2A" transform="translate(0,0)"/>
<path d="" fill="#0D1A29" transform="translate(0,0)"/>
<path d="" fill="#0D1B2A" transform="translate(0,0)"/>
<path d="" fill="#0D1B2A" transform="translate(0,0)"/>
<path d="" fill="#0D1B2A" transform="translate(0,0)"/>
<path d="" fill="#0D1838" transform="translate(0,0)"/>
<path d="" fill="#0D1B2A" transform="translate(0,0)"/>
<path d="" fill="#0C1A2A" transform="translate(0,0)"/>
<path d="" fill="#0D1B2A" transform="translate(0,0)"/>
<path d="" fill="#0C1A29" transform="translate(0,0)"/>
<path d="" fill="#0C1A2A" transform="translate(0,0)"/>
<path d="" fill="#0D1B2A" transform="translate(0,0)"/>
<path d="" fill="#0D1737" transform="translate(0,0)"/>
<path d="" fill="#0C1B29" transform="translate(0,0)"/>
<path d="" fill="#0D1B2A" transform="translate(0,0)"/>
<path d="" fill="#0C1B2A" transform="translate(0,0)"/>
<path d="" fill="#0D1B2A" transform="translate(0,0)"/>
<path d="" fill="#0C1A29" transform="translate(0,0)"/>
<path d="" fill="#0C1A29" transform="translate(0,0)"/>
<path d="" fill="#0D1B2A" transform="translate(0,0)"/>
<path d="" fill="#0C1A29" transform="translate(0,0)"/>
<path d="" fill="#0C1B29" transform="translate(0,0)"/>
<path d="" fill="#0D1838" transform="translate(0,0)"/>
<path d="" fill="#0C1A2A" transform="translate(0,0)"/>
<path d="" fill="#0D1B2A" transform="translate(0,0)"/>
<path d="" fill="#0D1B2A" transform="translate(0,0)"/>
<path d="" fill="#0D1A2A" transform="translate(0,0)"/>
<path d="" fill="#0D1B2A" transform="translate(0,0)"/>
<path d="" fill="#27667B" transform="translate(0,0)"/>
<path d="" fill="#0C1A29" transform="translate(0,0)"/>
<path d="" fill="#0D1B29" transform="translate(0,0)"/>
<path d="" fill="#0D1B2A" transform="translate(0,0)"/>
<path d="" fill="#0D1B2A" transform="translate(0,0)"/>
<path d="" fill="#0D1B2A" transform="translate(0,0)"/>
<path d="" fill="#0D1A29" transform="translate(0,0)"/>
<path d="" fill="#0D1B2A" transform="translate(0,0)"/>
<path d="" fill="#0D1B2A" transform="translate(0,0)"/>
<path d="" fill="#0D1B2A" transform="translate(0,0)"/>
<path d="" fill="#0C1B2A" transform="translate(0,0)"/>
<path d="" fill="#0D1B29" transform="translate(0,0)"/>
<path d="" fill="#0D1B2A" transform="translate(0,0)"/>
<path d="" fill="#0D1B2A" transform="translate(0,0)"/>
<path d="" fill="#0D1B2A" transform="translate(0,0)"/>
<path d="" fill="#0C1A29" transform="translate(0,0)"/>
<path d="" fill="#0D1B2A" transform="translate(0,0)"/>
<path d="" fill="#0D1B2A" transform="translate(0,0)"/>
<path d="" fill="#0C1A2A" transform="translate(0,0)"/>
<path d="" fill="#0D1B2A" transform="translate(0,0)"/>
<path d="" fill="#0D1838" transform="translate(0,0)"/>
<path d="" fill="#0D1B2A" transform="translate(0,0)"/>
<path d="" fill="#0D1B2A" transform="translate(0,0)"/>
<path d="" fill="#0D1B2A" transform="translate(0,0)"/>
<path d="" fill="#0D1B2A" transform="translate(0,0)"/>
<path d="" fill="#0D1B2A" transform="translate(0,0)"/>
<path d="" fill="#0D1B2A" transform="translate(0,0)"/>
<path d="" fill="#0D1B2A" transform="translate(0,0)"/>
<path d="" fill="#0D1B2A" transform="translate(0,0)"/>
<path d="" fill="#0D1B2A" transform="translate(0,0)"/>
<path d="" fill="#0D1B2A" transform="translate(0,0)"/>
<path d="" fill="#0D1B2A" transform="translate(0,0)"/>
<path d="" fill="#0D1A2A" transform="translate(0,0)"/>
<path d="" fill="#0D1A29" transform="translate(0,0)"/>
<path d="" fill="#0D1B2A" transform="translate(0,0)"/>
<path d="" fill="#0C1A29" transform="translate(0,0)"/>
<path d="" fill="#0D1A2A" transform="translate(0,0)"/>
<path d="" fill="#0D1B2A" transform="translate(0,0)"/>
<path d="" fill="#0C1A2A" transform="translate(0,0)"/>
<path d="" fill="#0D1B2A" transform="translate(0,0)"/>
<path d="" fill="#0D1A29" transform="translate(0,0)"/>
<path d="" fill="#0D1A29" transform="translate(0,0)"/>
<path d="" fill="#0C1A29" transform="translate(0,0)"/>
<path d="" fill="#0D1A29" transform="translate(0,0)"/>
<path d="" fill="#27667B" transform="translate(0,0)"/>
<path d="" fill="#0D1B2A" transform="translate(0,0)"/>
<path d="" fill="#0D1B2A" transform="translate(0,0)"/>
<path d="" fill="#0D1A2A" transform="translate(0,0)"/>
<path d="" fill="#0D1B2A" transform="translate(0,0)"/>
<path d="" fill="#0D1B2A" transform="translate(0,0)"/>
<path d="" fill="#0C1A2A" transform="translate(0,0)"/>
<path d="" fill="#0D1A2A" transform="translate(0,0)"/>
<path d="" fill="#0D1B29" transform="translate(0,0)"/>
<path d="" fill="#0D1B2A" transform="translate(0,0)"/>
<path d="" fill="#27667B" transform="translate(0,0)"/>
<path d="" fill="#0D1B2A" transform="translate(0,0)"/>
<path d="" fill="#0D1B2A" transform="translate(0,0)"/>
<path d="" fill="#0C1A2A" transform="translate(0,0)"/>
<path d="" fill="#0C1B29" transform="translate(0,0)"/>
<path d="" fill="#0D1B2A" transform="translate(0,0)"/>
<path d="" fill="#0D1B2A" transform="translate(0,0)"/>
<path d="" fill="#0D1A29" transform="translate(0,0)"/>
<path d="" fill="#0D1B2A" transform="translate(0,0)"/>
<path d="" fill="#0D1A2A" transform="translate(0,0)"/>
<path d="" fill="#0D1B2A" transform="translate(0,0)"/>
<path d="" fill="#0D1A29" transform="translate(0,0)"/>
<path d="" fill="#0C1A29" transform="translate(0,0)"/>
<path d="" fill="#0D1B2A" transform="translate(0,0)"/>
<path d="" fill="#0C1A29" transform="translate(0,0)"/>
<path d="" fill="#0C1B2A" transform="translate(0,0)"/>
<path d="" fill="#27667B" transform="translate(0,0)"/>
<path d="" fill="#27667B" transform="translate(0,0)"/>
<path d="" fill="#26667B" transform="translate(0,0)"/>
<path d="" fill="#27667B" transform="translate(0,0)"/>
<path d="" fill="#26657B" transform="translate(0,0)"/>
<path d="" fill="#27667B" transform="translate(0,0)"/>
<path d="" fill="#26667A" transform="translate(0,0)"/>
<path d="" fill="#27667A" transform="translate(0,0)"/>
<path d="" fill="#27667B" transform="translate(0,0)"/>
<path d="" fill="#27667B" transform="translate(0,0)"/>
<path d="" fill="#27667B" transform="translate(0,0)"/>
<path d="" fill="#27667B" transform="translate(0,0)"/>
<path d="" fill="#27667B" transform="translate(0,0)"/>
<path d="" fill="#27667B" transform="translate(0,0)"/>
<path d="" fill="#0C1838" transform="translate(0,0)"/>
<path d="" fill="#0D1838" transform="translate(0,0)"/>
<path d="" fill="#0D1837" transform="translate(0,0)"/>
<path d="" fill="#0D1737" transform="translate(0,0)"/>
<path d="" fill="#0D1838" transform="translate(0,0)"/>
<path d="" fill="#0C1837" transform="translate(0,0)"/>
<path d="" fill="#0D1838" transform="translate(0,0)"/>
<path d="" fill="#0C1737" transform="translate(0,0)"/>
<path d="" fill="#0D1838" transform="translate(0,0)"/>
<path d="" fill="#0D1838" transform="translate(0,0)"/>
<path d="" fill="#0D1838" transform="translate(0,0)"/>
<path d="" fill="#0D1737" transform="translate(0,0)"/>
<path d="" fill="#0D1838" transform="translate(0,0)"/>
<path d="" fill="#0D1738" transform="translate(0,0)"/>
<path d="" fill="#0D1737" transform="translate(0,0)"/>
<path d="" fill="#0D1838" transform="translate(0,0)"/>
<path d="" fill="#0D1838" transform="translate(0,0)"/>
<path d="" fill="#0C1837" transform="translate(0,0)"/>
<path d="" fill="#0C1737" transform="translate(0,0)"/>
<path d="" fill="#0D1837" transform="translate(0,0)"/>
<path d="" fill="#0D1838" transform="translate(0,0)"/>
</svg>
