<?xml version="1.0" encoding="UTF-8" standalone="no"?>
<svg
   viewBox="0 0 127 42"
   version="1.1"
   id="svg10"
   sodipodi:docname="site_logo.svg"
   width="127"
   height="42"
   inkscape:version="1.1.2 (0a00cf5339, 2022-02-04)"
   xmlns:inkscape="http://www.inkscape.org/namespaces/inkscape"
   xmlns:sodipodi="http://sodipodi.sourceforge.net/DTD/sodipodi-0.dtd"
   xmlns="http://www.w3.org/2000/svg"
   xmlns:svg="http://www.w3.org/2000/svg">
  <defs
     id="defs14">
    <clipPath
       id="79aa16e8a5">
      <path
         d="m 78,181 h 75.80078 v 13 H 78 Z m 0,0"
         clip-rule="nonzero"
         id="path4-3" />
    </clipPath>
    <clipPath
       id="8a086bf350">
      <path
         d="m 92,152 h 61.80078 v 13 H 92 Z m 0,0"
         clip-rule="nonzero"
         id="path7" />
    </clipPath>
    <clipPath
       id="13b460c184">
      <path
         d="m 124,167 h 29.80078 v 12 H 124 Z m 0,0"
         clip-rule="nonzero"
         id="path10" />
    </clipPath>
    <clipPath
       id="3b22d0dfbc">
      <path
         d="M 59.300781,181 H 73 v 13 H 59.300781 Z m 0,0"
         clip-rule="nonzero"
         id="path13" />
    </clipPath>
    <clipPath
       id="d8edeab277">
      <path
         d="m 95,195 h 58.80078 v 13 H 95 Z m 0,0"
         clip-rule="nonzero"
         id="path16" />
    </clipPath>
    <clipPath
       id="d2bcbfa0ac">
      <path
         d="m 101,210 h 52.80078 v 13 H 101 Z m 0,0"
         clip-rule="nonzero"
         id="path19" />
    </clipPath>
  </defs>
  <sodipodi:namedview
     id="namedview12"
     pagecolor="#ffffff"
     bordercolor="#666666"
     borderopacity="1.0"
     inkscape:pageshadow="2"
     inkscape:pageopacity="0.0"
     inkscape:pagecheckerboard="0"
     showgrid="false"
     inkscape:zoom="3.7619048"
     inkscape:cx="68.71519"
     inkscape:cy="7.5759494"
     inkscape:window-width="1518"
     inkscape:window-height="781"
     inkscape:window-x="0"
     inkscape:window-y="0"
     inkscape:window-maximized="1"
     inkscape:current-layer="svg10" />
  <g
     id="g111"
     transform="matrix(0.3941181,0,0,0.40344988,-4.2283499,-54.359894)">
    <g
       clip-path="url(#79aa16e8a5)"
       id="g30"
       transform="matrix(1.412516,0,0,1.412516,-71.087212,-77.279611)">
      <path
         fill="#e8543e"
         d="m 186.88672,181.47656 h -61.04297 l -2.60937,4.50781 h -6.03516 l -2.60547,-4.50781 c -2.24609,0 -30.414062,0 -32.660156,0 l -3.371094,5.83985 3.371094,5.83593 c 2.246094,0 30.414066,0 32.660156,0 l 2.60547,-4.5039 h 6.03516 l 2.60937,4.5039 h 61.04297 c 0.67187,-3.85547 0.67187,-7.80859 0,-11.67578 z m 0,0"
         fill-opacity="1"
         fill-rule="nonzero"
         id="path28" />
    </g>
    <g
       clip-path="url(#8a086bf350)"
       id="g34"
       transform="matrix(1.412516,0,0,1.412516,-71.087212,-77.279611)">
      <path
         fill="#e8543e"
         d="m 103.07813,164.44531 2.60546,-4.50781 h 6.03516 l 2.60938,4.50781 h 64.35546 c -12.09375,-13.63672 -25.66015,-11.6914 -42.01953,-11.6914 h -22.33593 l -2.60938,4.50781 h -6.03516 l -2.60546,-4.50781 h -6.742192 l -3.371094,5.83984 3.371094,5.83984 h 6.742192 z m 0,0"
         fill-opacity="1"
         fill-rule="nonzero"
         id="path32" />
    </g>
    <g
       clip-path="url(#13b460c184)"
       id="g38"
       transform="matrix(1.412516,0,0,1.412516,-71.087212,-77.279611)">
      <path
         fill="#e8543e"
         d="m 143.39453,171.62891 h -6.03516 l -2.60546,-4.50782 h -6.7461 l -3.37109,5.83985 3.37109,5.83984 h 6.7461 l 2.60546,-4.50781 h 6.03516 L 146,178.80078 h 40.32031 c -1.08984,-4.26562 -2.97656,-8.21484 -5.49219,-11.69141 H 146 Z m 0,0"
         fill-opacity="1"
         fill-rule="nonzero"
         id="path36" />
    </g>
    <g
       clip-path="url(#3b22d0dfbc)"
       id="g42"
       transform="matrix(1.412516,0,0,1.412516,-71.087212,-77.279611)">
      <path
         fill="#e8543e"
         d="m 62.679688,181.47656 -3.371094,5.83985 3.371094,5.84765 h 6.753906 l 3.371094,-5.84765 -3.371094,-5.83985 z m 0,0"
         fill-opacity="1"
         fill-rule="nonzero"
         id="path40" />
    </g>
    <path
       fill="#e8543e"
       d="m 77.767694,167.03048 4.761725,8.24887 h 9.54 l 4.761724,-8.24887 -4.761724,-8.24888 h -9.54 z m 0,0"
       fill-opacity="1"
       fill-rule="nonzero"
       id="path44"
       style="stroke-width:1.41252" />
    <path
       fill="#e8543e"
       d="m 49.99741,219.60807 -4.778276,8.26543 4.778276,8.24887 h 9.523448 l 4.761724,-8.24887 -4.761724,-8.26543 z m 0,0"
       fill-opacity="1"
       fill-rule="nonzero"
       id="path46"
       style="stroke-width:1.41252" />
    <g
       clip-path="url(#d8edeab277)"
       id="g50"
       transform="matrix(1.412516,0,0,1.412516,-71.087212,-77.279611)">
      <path
         fill="#e8543e"
         d="m 114.59375,200.33594 h -6.03516 l -2.60937,-4.50391 h -6.742189 l -3.371093,5.83594 3.371093,5.83984 h 6.742189 L 108.55859,203 h 6.03516 l 2.60547,4.50781 h 63.61719 c 2.51562,-3.47656 4.40234,-7.42578 5.49218,-11.6875 -21.12109,0 -48,0 -69.12109,0 z m 0,0"
         fill-opacity="1"
         fill-rule="nonzero"
         id="path48" />
    </g>
    <g
       clip-path="url(#d2bcbfa0ac)"
       id="g54"
       transform="matrix(1.412516,0,0,1.412516,-71.087212,-77.279611)">
      <path
         fill="#e8543e"
         d="m 131.87891,214.70312 h -6.03516 l -2.60937,-4.50781 c -6.08204,0 -12.17579,0 -18.26954,0 l -3.37109,5.83985 3.37109,5.83984 c 6.09375,0 12.17579,0 18.26954,0 l 2.60937,-4.50781 h 6.03516 l 2.60546,4.50781 c 17.27735,0 31.79297,2.30469 44.19922,-11.69141 h -44.19922 z m 0,0"
         fill-opacity="1"
         fill-rule="nonzero"
         id="path52" />
    </g>
    <g
       fill="#485870"
       fill-opacity="1"
       id="g62"
       transform="matrix(1.412516,0,0,1.412516,-71.087212,-77.279611)">
      <g
         transform="translate(164.68063,178.38841)"
         id="g60">
        <g
           id="g58">
          <path
             d="M 8.109375,0 H 2.03125 v -23.65625 h 6.078125 v 9.296875 h 3.046875 l 5.265625,-9.296875 H 22.84375 L 16.21875,-12 22.8125,0 H 16.390625 L 11.15625,-9.625 H 8.109375 Z m 0,0"
             id="path56" />
        </g>
      </g>
    </g>
    <g
       fill="#485870"
       fill-opacity="1"
       id="g70"
       transform="matrix(1.412516,0,0,1.412516,-71.087212,-77.279611)">
      <g
         transform="translate(194.27985,178.38841)"
         id="g68">
        <g
           id="g66">
          <path
             d="m 8.625,-14.03125 c -0.90625,0 -1.359375,0.453125 -1.359375,1.359375 v 1.859375 h 5.75 v -1.859375 c 0,-0.90625 -0.453125,-1.359375 -1.359375,-1.359375 z m 9.625,13.6875 c -4.34375,0.457031 -8.289062,0.6875 -11.828125,0.6875 -1.53125,0 -2.761719,-0.460938 -3.6875,-1.390625 -0.917969,-0.925781 -1.375,-2.15625 -1.375,-3.6875 v -8.109375 c 0,-1.6875 0.472656,-3.007812 1.421875,-3.96875 0.957031,-0.957031 2.285156,-1.4375 3.984375,-1.4375 h 6.75 c 1.6875,0 3.007813,0.480469 3.96875,1.4375 0.957031,0.960938 1.4375,2.28125 1.4375,3.96875 v 6.25 H 7.265625 v 1.359375 c 0,0.335937 0.109375,0.617187 0.328125,0.84375 0.226562,0.21875 0.515625,0.328125 0.859375,0.328125 2.226563,0 5.492187,-0.164062 9.796875,-0.5 z m 0,0"
             id="path64" />
        </g>
      </g>
    </g>
    <g
       fill="#485870"
       fill-opacity="1"
       id="g78"
       transform="matrix(1.412516,0,0,1.412516,-71.087212,-77.279611)">
      <g
         transform="translate(221.3114,178.38841)"
         id="g76">
        <g
           id="g74">
          <path
             d="M 10.8125,0 C 9.300781,0.226562 7.863281,0.34375 6.5,0.34375 5.144531,0.34375 4.003906,-0.117188 3.078125,-1.046875 2.148438,-1.972656 1.6875,-3.203125 1.6875,-4.734375 V -23.65625 h 5.921875 v 18.078125 c 0,0.34375 0.109375,0.632813 0.328125,0.859375 0.226562,0.21875 0.507812,0.328125 0.84375,0.328125 h 2.03125 z m 0,0"
             id="path72" />
        </g>
      </g>
    </g>
    <g
       fill="#485870"
       fill-opacity="1"
       id="g86"
       transform="matrix(1.412516,0,0,1.412516,-71.087212,-77.279611)">
      <g
         transform="translate(239.55882,178.38841)"
         id="g84">
        <g
           id="g82">
          <path
             d="m 8.78125,-4.390625 c 1.195312,0 2.550781,-0.222656 4.0625,-0.671875 V -7.09375 H 7.9375 c -0.335938,0 -0.617188,0.117188 -0.84375,0.34375 -0.21875,0.21875 -0.328125,0.496094 -0.328125,0.828125 v 0.34375 c 0,0.34375 0.109375,0.632813 0.328125,0.859375 0.226562,0.21875 0.507812,0.328125 0.84375,0.328125 z m -6.25,-13.1875 C 6.65625,-18.023438 10.375,-18.25 13.6875,-18.25 c 1.53125,0 2.753906,0.464844 3.671875,1.390625 C 18.285156,-15.941406 18.75,-14.71875 18.75,-13.1875 V 0 H 13.515625 L 13.1875,-1.6875 C 12.125,-0.988281 11.035156,-0.472656 9.921875,-0.140625 8.804688,0.179688 7.863281,0.34375 7.09375,0.34375 H 5.921875 c -1.542969,0 -2.777344,-0.460938 -3.703125,-1.390625 -0.917969,-0.925781 -1.375,-2.15625 -1.375,-3.6875 V -6.25 c 0,-1.53125 0.457031,-2.757812 1.375,-3.6875 0.925781,-0.925781 2.160156,-1.390625 3.703125,-1.390625 h 6.921875 v -1.34375 c 0,-0.34375 -0.117188,-0.625 -0.34375,-0.84375 -0.21875,-0.226563 -0.5,-0.34375 -0.84375,-0.34375 -1.460938,0 -3.074219,0.07031 -4.84375,0.203125 -1.773438,0.136719 -3.199219,0.242188 -4.28125,0.3125 z m 0,0"
             id="path80" />
        </g>
      </g>
    </g>
    <g
       fill="#485870"
       fill-opacity="1"
       id="g94"
       transform="matrix(1.412516,0,0,1.412516,-71.087212,-77.279611)">
      <g
         transform="translate(266.42145,178.38841)"
         id="g92">
        <g
           id="g90">
          <path
             d="m 1.015625,-4.734375 c 4.570313,0.34375 8.175781,0.515625 10.8125,0.515625 0.332031,0 0.613281,-0.113281 0.84375,-0.34375 0.226563,-0.226562 0.34375,-0.507812 0.34375,-0.84375 v -1.1875 H 5.75 c -1.53125,0 -2.761719,-0.457031 -3.6875,-1.375 -0.929688,-0.925781 -1.390625,-2.15625 -1.390625,-3.6875 v -1.1875 c 0,-1.53125 0.460937,-2.753906 1.390625,-3.671875 0.925781,-0.925781 2.15625,-1.390625 3.6875,-1.390625 h 11.484375 v 4.390625 h -9.46875 c -0.335937,0 -0.617187,0.117187 -0.84375,0.34375 -0.21875,0.21875 -0.328125,0.5 -0.328125,0.84375 0,0.335937 0.109375,0.617187 0.328125,0.84375 0.226563,0.21875 0.507813,0.328125 0.84375,0.328125 h 6.09375 c 1.53125,0 2.753906,0.464844 3.671875,1.390625 0.925781,0.929687 1.390625,2.15625 1.390625,3.6875 v 1.34375 c 0,1.53125 -0.464844,2.761719 -1.390625,3.6875 -0.917969,0.929687 -2.140625,1.390625 -3.671875,1.390625 -3.992187,0 -8.273437,-0.230469 -12.84375,-0.6875 z m 0,0"
             id="path88" />
        </g>
      </g>
    </g>
    <g
       fill="#485870"
       fill-opacity="1"
       id="g102"
       transform="matrix(1.412516,0,0,1.412516,-71.087212,-77.279611)">
      <g
         transform="translate(164.68063,217.55623)"
         id="g100">
        <g
           id="g98">
          <path
             d="M 13.1875,0 H 1.015625 V -4.734375 H 4.0625 v -14.1875 H 1.015625 V -23.65625 H 13.1875 v 4.734375 h -3.046875 v 14.1875 H 13.1875 Z m 0,0"
             id="path96" />
        </g>
      </g>
    </g>
    <g
       fill="#485870"
       fill-opacity="1"
       id="g110"
       transform="matrix(1.412516,0,0,1.412516,-71.087212,-77.279611)">
      <g
         transform="translate(185.63273,217.55623)"
         id="g108">
        <g
           id="g106">
          <path
             d="m 19.9375,-5.0625 c 0,1.6875 -0.480469,3.011719 -1.4375,3.96875 -0.960938,0.960938 -2.28125,1.4375 -3.96875,1.4375 H 6.765625 c -1.699219,0 -3.027344,-0.476562 -3.984375,-1.4375 C 1.832031,-2.050781 1.359375,-3.375 1.359375,-5.0625 v -7.78125 c 0,-1.6875 0.472656,-3.007812 1.421875,-3.96875 0.957031,-0.957031 2.285156,-1.4375 3.984375,-1.4375 h 7.765625 c 1.6875,0 3.007812,0.480469 3.96875,1.4375 0.957031,0.960938 1.4375,2.28125 1.4375,3.96875 z m -5.90625,-7.265625 c 0,-0.90625 -0.453125,-1.359375 -1.359375,-1.359375 H 8.625 c -0.90625,0 -1.359375,0.453125 -1.359375,1.359375 v 6.75 c 0,0.90625 0.453125,1.359375 1.359375,1.359375 h 4.046875 c 0.90625,0 1.359375,-0.453125 1.359375,-1.359375 z m 0,0"
             id="path104" />
        </g>
      </g>
    </g>
    <g
       fill="#485870"
       fill-opacity="1"
       id="g118"
       transform="matrix(1.412516,0,0,1.412516,-71.087212,-77.279611)">
      <g
         transform="translate(213.68064,217.55623)"
         id="g116">
        <g
           id="g114">
          <path
             d="M 13.515625,0 H 7.4375 V -18.921875 H 0.34375 v -4.734375 h 20.265625 v 4.734375 h -7.09375 z m 0,0"
             id="path112" />
        </g>
      </g>
    </g>
  </g>
</svg>
